<?xml version="1.0" encoding="UTF-8" standalone="no"?>
<svg width="20px" height="20px" viewBox="0 0 20 20" version="1.1" xmlns="http://www.w3.org/2000/svg" xmlns:xlink="http://www.w3.org/1999/xlink">
    <!-- Generator: Sketch 41 (35326) - http://www.bohemiancoding.com/sketch -->
    <title>Поиск</title>
    <desc>Created with Sketch.</desc>
    <defs></defs>
    <g id="Page-1" stroke="none" stroke-width="1" fill="none" fill-rule="evenodd">
        <rect id="Rectangle-4" fill="#1DBFFF" x="-436" y="-26" width="1440" height="72"></rect>
        <path d="M19.7628761,18.6388611 C20.0790413,18.9485514 20.0790413,19.458042 19.7628761,19.7677323 C19.436512,20.0774226 18.9265681,20.0774226 18.6104029,19.7677323 L12.3890872,13.6738262 C9.34982152,15.9015984 5.03569607,15.6718282 2.2718001,12.9645355 C-0.757266701,9.9975025 -0.757266701,5.19230769 2.2718001,2.22527473 C5.3008669,-0.741758242 10.2167262,-0.741758242 13.245793,2.22527473 C16.1524732,5.07242757 16.254462,9.60789211 13.5925548,12.5949051 L19.7628761,18.6388611 Z M12.0219276,11.7757243 C14.3880673,9.46803197 14.3880673,5.72177822 12.0219276,3.41408591 C9.66598674,1.10639361 5.85160632,1.10639361 3.49566548,3.41408591 C1.13972463,5.72177822 1.13972463,9.46803197 3.49566548,11.7757243 C5.85160632,14.0834166 9.66598674,14.0834166 12.0219276,11.7757243 L12.0219276,11.7757243 Z" fill="#FFFFFF" opacity="0.799999952"></path>
    </g>
</svg>