<?xml version="1.0" encoding="UTF-8" standalone="no"?>
<svg width="24px" height="24px" viewBox="0 0 24 24" version="1.1" xmlns="http://www.w3.org/2000/svg" xmlns:xlink="http://www.w3.org/1999/xlink">
    <!-- Generator: Sketch 41 (35326) - http://www.bohemiancoding.com/sketch -->
    <title>Стройматериалы</title>
    <desc>Created with Sketch.</desc>
    <defs>
        <polygon id="path-1" points="12 5.9996 12 0.9776 0.7973 0.9776 0.7973 5.9996 12 5.9996"></polygon>
        <polygon id="path-3" points="0 0.3261 0 5.3481 11.2027 5.3481 11.2027 0.3261 9.48676901e-20 0.3261"></polygon>
    </defs>
    <g id="Page-1" stroke="none" stroke-width="1" fill="none" fill-rule="evenodd">
        <g id="Menu" transform="translate(-20.000000, -312.000000)">
            <rect id="Rectangle" fill="#FFFFFF" x="0" y="0" width="270" height="900"></rect>
            <g id="Page-1" opacity="0.8" transform="translate(20.000000, 312.000000)">
                <path d="M7.9921,15.3075 L7.9921,15.0185 C7.9921,14.5815 8.3501,14.2275 8.7921,14.2275 L13.7411,14.2275 L15.2091,14.2275 C15.6501,14.2275 16.0081,14.5815 16.0081,15.0185 L16.0081,15.3065 C16.0081,15.7435 15.6501,16.0985 15.2081,16.0985 L13.7411,16.0985 L8.7911,16.0985 C8.3501,16.0985 7.9921,15.7445 7.9921,15.3075 L7.9921,15.3075 Z M8.7911,17.6745 L13.7411,17.6745 L15.2091,17.6745 C16.5291,17.6745 17.6011,16.6145 17.6011,15.3065 L17.6011,15.0185 C17.6011,13.7115 16.5301,12.6515 15.2091,12.6515 L13.7411,12.6515 L8.7911,12.6515 L8.5351,12.6515 L8.5351,12.6775 C7.3361,12.8055 6.3981,13.7985 6.3981,15.0185 L6.3981,15.3065 C6.3981,16.5275 7.3361,17.5205 8.5351,17.6485 L8.5351,17.6745 L8.7911,17.6745 Z" id="Fill-1" fill="#282829"></path>
                <path d="M9.6095,21.6326 C9.6095,22.0696 9.2515,22.4236 8.8095,22.4236 L7.3425,22.4236 L2.3925,22.4236 C1.9515,22.4236 1.5935,22.0696 1.5935,21.6336 L1.5935,21.3446 C1.5935,20.9076 1.9515,20.5536 2.3935,20.5536 L7.3425,20.5536 L8.8105,20.5536 C9.2515,20.5536 9.6095,20.9076 9.6095,21.3436 L9.6095,21.6326 Z M8.8105,18.9776 L7.3425,18.9776 L2.3925,18.9776 L2.1365,18.9776 L2.1365,19.0026 C0.9375,19.1306 0.0005,20.1246 0.0005,21.3446 L0.0005,21.6326 C0.0005,22.8536 0.9375,23.8466 2.1365,23.9746 L2.1365,23.9996 L2.3925,23.9996 L7.3425,23.9996 L8.8105,23.9996 C10.1305,23.9996 11.2035,22.9396 11.2035,21.6326 L11.2035,21.3446 C11.2035,20.0366 10.1315,18.9776 8.8105,18.9776 L8.8105,18.9776 Z" id="Fill-3" fill="#282829"></path>
                <g id="Group-7" transform="translate(12.000000, 18.000000)">
                    <mask id="mask-2" fill="white">
                        <use xlink:href="#path-1"></use>
                    </mask>
                    <g id="Clip-6"></g>
                    <path d="M10.4063,3.6326 C10.4063,4.0696 10.0483,4.4236 9.6063,4.4236 L8.1393,4.4236 L3.1893,4.4236 C2.7483,4.4236 2.3903,4.0696 2.3903,3.6336 L2.3903,3.3446 C2.3903,2.9076 2.7483,2.5536 3.1903,2.5536 L8.1393,2.5536 L9.6073,2.5536 C10.0483,2.5536 10.4063,2.9076 10.4063,3.3436 L10.4063,3.6326 Z M9.6073,0.9776 L8.1393,0.9776 L3.1893,0.9776 L2.9333,0.9776 L2.9333,1.0026 C1.7343,1.1306 0.7973,2.1246 0.7973,3.3446 L0.7973,3.6326 C0.7973,4.8536 1.7343,5.8466 2.9333,5.9746 L2.9333,5.9996 L3.1893,5.9996 L8.1393,5.9996 L9.6073,5.9996 C10.9273,5.9996 12.0003,4.9396 12.0003,3.6326 L12.0003,3.3446 C12.0003,2.0366 10.9283,0.9776 9.6073,0.9776 L9.6073,0.9776 Z" id="Fill-5" fill="#282829" mask="url(#mask-2)"></path>
                </g>
                <g id="Group-10" transform="translate(0.000000, 6.000000)">
                    <mask id="mask-4" fill="white">
                        <use xlink:href="#path-3"></use>
                    </mask>
                    <g id="Clip-9"></g>
                    <path d="M1.5937,2.6931 C1.5937,2.2561 1.9517,1.9021 2.3937,1.9021 L7.3427,1.9021 L8.8107,1.9021 C9.2517,1.9021 9.6097,2.2561 9.6097,2.6921 L9.6097,2.9811 C9.6097,3.4181 9.2517,3.7721 8.8097,3.7721 L7.3427,3.7721 L2.3927,3.7721 C1.9517,3.7721 1.5937,3.4181 1.5937,2.9821 L1.5937,2.6931 Z M2.1367,5.3231 L2.1367,5.3481 L2.3927,5.3481 L7.3427,5.3481 L8.8107,5.3481 C10.1307,5.3481 11.2027,4.2881 11.2027,2.9811 L11.2027,2.6931 C11.2027,1.3861 10.1317,0.3261 8.8107,0.3261 L7.3427,0.3261 L2.3927,0.3261 L2.1367,0.3261 L2.1367,0.3511 C0.9377,0.4791 -0.0003,1.4731 -0.0003,2.6931 L-0.0003,2.9811 C-0.0003,4.2021 0.9377,5.1951 2.1367,5.3231 L2.1367,5.3231 Z" id="Fill-8" fill="#282829" mask="url(#mask-4)"></path>
                </g>
                <path d="M7.9921,2.3674 C7.9921,1.9304 8.3501,1.5764 8.7921,1.5764 L13.7411,1.5764 L15.2091,1.5764 C15.6501,1.5764 16.0081,1.9304 16.0081,2.3664 L16.0081,2.6554 C16.0081,3.0924 15.6501,3.4464 15.2081,3.4464 L13.7411,3.4464 L8.7911,3.4464 C8.3501,3.4464 7.9921,3.0924 7.9921,2.6564 L7.9921,2.3674 Z M8.5351,4.9974 L8.5351,5.0224 L8.7911,5.0224 L13.7411,5.0224 L15.2091,5.0224 C16.5291,5.0224 17.6011,3.9624 17.6011,2.6554 L17.6011,2.3674 C17.6011,1.0604 16.5301,0.0004 15.2091,0.0004 L13.7411,0.0004 L8.7911,0.0004 L8.5351,0.0004 L8.5351,0.0254 C7.3361,0.1534 6.3981,1.1474 6.3981,2.3674 L6.3981,2.6554 C6.3981,3.8764 7.3361,4.8694 8.5351,4.9974 L8.5351,4.9974 Z" id="Fill-11" fill="#282829"></path>
            </g>
        </g>
    </g>
</svg>