<?xml version="1.0" encoding="UTF-8" standalone="no"?>
<svg width="20px" height="20px" viewBox="0 0 20 20" version="1.1" xmlns="http://www.w3.org/2000/svg" xmlns:xlink="http://www.w3.org/1999/xlink">
    <!-- Generator: Sketch 41 (35326) - http://www.bohemiancoding.com/sketch -->
    <title>выйти</title>
    <desc>Created with Sketch.</desc>
    <defs>
        <polygon id="path-1" points="18.8727273 9.99454545 18.8727273 0.898181818 0.690909091 0.898181818 0.690909091 19.0909091 18.8727273 19.0909091"></polygon>
    </defs>
    <g id="Page-1" stroke="none" stroke-width="1" fill="none" fill-rule="evenodd">
        <g transform="translate(10.000000, 10.000000) scale(-1, 1) translate(-10.000000, -10.000000) ">
            <g id="Group-3" transform="translate(0.909091, 0.011364)">
                <mask id="mask-2" fill="white">
                    <use xlink:href="#path-1"></use>
                </mask>
                <g id="Clip-2"></g>
                <path d="M18.1454545,9.26363636 L3.20909091,9.26363636 L10.3363636,2.14545455 C10.6181818,1.85454545 10.6181818,1.4 10.3363636,1.10909091 C10.0454545,0.827272727 9.59090909,0.827272727 9.3,1.10909091 L1,9.41818182 C0.818181818,9.55454545 0.690909091,9.75454545 0.690909091,9.99090909 C0.690909091,10.2363636 0.818181818,10.4363636 1,10.5727273 L9.3,18.8727273 C9.59090909,19.1636364 10.0454545,19.1636364 10.3363636,18.8727273 C10.4818182,18.7272727 10.5454545,18.5454545 10.5454545,18.3636364 C10.5454545,18.1818182 10.4818182,17.9909091 10.3363636,17.8454545 L3.20909091,10.7181818 L18.1454545,10.7181818 C18.5454545,10.7181818 18.8727273,10.4 18.8727273,9.99090909 C18.8727273,9.59090909 18.5454545,9.26363636 18.1454545,9.26363636" id="Fill-1" fill="#FFFFFF" opacity="0.799999952" mask="url(#mask-2)"></path>
            </g>
            <path d="M0.727272727,0.911363636 C0.327272727,0.911363636 0,1.23863636 0,1.63863636 L0,18.3659091 C0,18.775 0.327272727,19.0931818 0.727272727,19.0931818 C1.12727273,19.0931818 1.45454545,18.775 1.45454545,18.3659091 L1.45454545,1.63863636 C1.45454545,1.23863636 1.12727273,0.911363636 0.727272727,0.911363636" id="Fill-4" fill="#FFFFFF" opacity="0.799999952"></path>
        </g>
    </g>
</svg>