<?xml version="1.0" encoding="UTF-8" standalone="no"?>
<svg width="24px" height="24px" viewBox="0 0 24 24" version="1.1" xmlns="http://www.w3.org/2000/svg" xmlns:xlink="http://www.w3.org/1999/xlink">
    <!-- Generator: Sketch 41 (35326) - http://www.bohemiancoding.com/sketch -->
    <title>Двери</title>
    <desc>Created with Sketch.</desc>
    <defs>
        <polygon id="path-1" points="23.9995 0 0 0 0 23.9999 23.9995 23.9999 23.9995 0"></polygon>
    </defs>
    <g id="Page-1" stroke="none" stroke-width="1" fill="none" fill-rule="evenodd">
        <g id="Menu" transform="translate(-20.000000, -136.000000)">
            <rect id="Rectangle" fill="#FFFFFF" x="0" y="0" width="270" height="900"></rect>
            <g id="Page-1" opacity="0.8" transform="translate(20.000000, 136.000000)">
                <path d="M14.6634,11.8088 L12.2634,11.8088 C11.8234,11.8088 11.4634,12.1628 11.4634,12.5958 C11.4634,13.0318 11.8234,13.3858 12.2634,13.3858 L14.6634,13.3858 C15.1064,13.3858 15.4654,13.0318 15.4654,12.5958 C15.4654,12.1628 15.1064,11.8088 14.6634,11.8088" id="Fill-1" fill="#282829"></path>
                <g id="Group-5">
                    <mask id="mask-2" fill="white">
                        <use xlink:href="#path-1"></use>
                    </mask>
                    <g id="Clip-4"></g>
                    <path d="M18.3575,22.4229 L18.3575,1.5749 L19.1545,1.5749 C19.5975,1.5749 19.9565,1.9279 19.9565,2.3649 L19.9565,22.4229 L18.3575,22.4229 Z M3.9995,2.3639 C3.9995,1.9279 4.3595,1.5749 4.8015,1.5749 L16.7585,1.5749 L16.7585,22.4229 L3.9995,22.4229 L3.9995,2.3639 Z M23.1985,22.4229 L21.5555,22.4229 L21.5555,2.3639 C21.5555,1.0589 20.4805,-0.0001 19.1545,-0.0001 L4.8025,-0.0001 C3.4765,-0.0001 2.4015,1.0589 2.4015,2.3639 L2.4015,22.4229 L0.8005,22.4229 C0.3605,22.4229 -0.0005,22.7779 -0.0005,23.2119 C-0.0005,23.6449 0.3605,23.9999 0.8005,23.9999 L2.4015,23.9999 L21.5555,23.9999 L23.1985,23.9999 C23.6395,23.9999 23.9995,23.6449 23.9995,23.2119 C23.9995,22.7779 23.6395,22.4229 23.1985,22.4229 L23.1985,22.4229 Z" id="Fill-3" fill="#282829" mask="url(#mask-2)"></path>
                </g>
            </g>
        </g>
    </g>
</svg>