<?xml version="1.0" encoding="UTF-8" standalone="no"?>
<svg width="24px" height="24px" viewBox="0 0 24 24" version="1.1" xmlns="http://www.w3.org/2000/svg" xmlns:xlink="http://www.w3.org/1999/xlink">
    <!-- Generator: Sketch 41 (35326) - http://www.bohemiancoding.com/sketch -->
    <title>Инструмент</title>
    <desc>Created with Sketch.</desc>
    <defs>
        <polygon id="path-1" points="24 11.99985 24 0 0 0 0 11.99985 0 23.9997 24 23.9997"></polygon>
    </defs>
    <g id="Page-1" stroke="none" stroke-width="1" fill="none" fill-rule="evenodd">
        <g id="Menu" transform="translate(-20.000000, -268.000000)">
            <rect id="Rectangle" fill="#FFFFFF" x="0" y="0" width="270" height="900"></rect>
            <g id="Page-1" opacity="0.8" transform="translate(20.000000, 268.000000)">
                <mask id="mask-2" fill="white">
                    <use xlink:href="#path-1"></use>
                </mask>
                <g id="Clip-2"></g>
                <path d="M19.21,4.2927 C19.21,4.7297 18.851,5.0837 18.409,5.0837 L16.054,5.0837 L16.054,3.1527 L18.409,3.1527 C18.851,3.1527 19.21,3.5067 19.21,3.9427 L19.21,4.2927 Z M14.457,3.1527 L14.457,5.0837 L14.457,5.8077 C14.457,6.2447 14.099,6.5987 13.656,6.5987 L8.993,6.5987 L6.97,6.5987 L2.397,6.5987 C1.955,6.5987 1.597,6.2447 1.597,5.8087 L1.597,3.9417 L6.845,3.9417 C7.286,3.9417 7.644,3.5887 7.644,3.1527 C7.644,2.7177 7.286,2.3647 6.845,2.3647 L1.597,2.3647 C1.599,1.9287 1.956,1.5757 2.398,1.5757 L6.97,1.5757 L8.993,1.5757 L13.657,1.5757 C14.099,1.5757 14.457,1.9297 14.457,2.3667 L14.457,3.1527 Z M7.366,15.8247 L5.668,15.8247 L7.388,8.1747 L8.993,8.1747 L9.084,8.1747 L7.366,15.8247 Z M12.06,17.4007 C12.502,17.4007 12.861,17.7547 12.861,18.1917 L12.861,21.6327 C12.861,22.0697 12.502,22.4237 12.059,22.4237 L8.993,22.4237 L5.374,22.4237 L4.034,22.4237 C3.592,22.4237 3.233,22.0697 3.233,21.6337 L3.233,18.1927 C3.233,17.7557 3.592,17.4007 4.035,17.4007 L5.374,17.4007 L8.993,17.4007 L12.06,17.4007 Z M23.202,3.2987 L20.716,3.2987 L20.716,3.3327 C20.442,2.3237 19.518,1.5757 18.409,1.5757 L15.907,1.5757 C15.576,0.6597 14.698,-0.0003 13.657,-0.0003 L8.993,-0.0003 L6.97,-0.0003 L2.397,-0.0003 C1.074,-0.0003 0,1.0607 0,2.3677 L0,5.8077 C0,7.1147 1.073,8.1747 2.397,8.1747 L5.754,8.1747 L4.034,15.8247 C2.711,15.8247 1.637,16.8847 1.637,18.1927 L1.637,21.6327 C1.637,22.9397 2.71,23.9997 4.034,23.9997 L5.374,23.9997 L8.993,23.9997 L12.06,23.9997 C13.383,23.9997 14.457,22.9397 14.457,21.6327 L14.457,18.1927 C14.457,16.8847 13.384,15.8247 12.06,15.8247 L8.999,15.8247 L9.792,12.2987 C10.213,12.3807 10.627,12.1237 10.725,11.7077 L10.962,10.6967 C11.061,10.2727 10.793,9.8497 10.364,9.7507 L10.718,8.1747 L13.657,8.1747 C14.675,8.1747 15.54,7.5447 15.887,6.6597 L18.409,6.6597 C19.528,6.6597 20.46,5.8997 20.724,4.8757 L23.202,4.8757 L24,4.0877 L23.202,3.2987 Z" id="Fill-1" fill="#282829" mask="url(#mask-2)"></path>
            </g>
        </g>
    </g>
</svg>