<?xml version="1.0" encoding="UTF-8" standalone="no"?>
<svg width="20px" height="20px" viewBox="0 0 20 20" version="1.1" xmlns="http://www.w3.org/2000/svg" xmlns:xlink="http://www.w3.org/1999/xlink">
    <!-- Generator: Sketch 41 (35326) - http://www.bohemiancoding.com/sketch -->
    <title>+</title>
    <desc>Created with Sketch.</desc>
    <defs>
        <polygon id="path-1" points="0.0003 20 20 20 20 0.0003 0.0003 0.0003"></polygon>
    </defs>
    <g id="Page-1" stroke="none" stroke-width="1" fill="none" fill-rule="evenodd" opacity="0.8">
        <g>
            <mask id="mask-2" fill="white">
                <use xlink:href="#path-1"></use>
            </mask>
            <g id="Clip-2"></g>
            <path d="M19.2003,9.2003 L10.7993,9.2003 L10.7993,0.7993 C10.7993,0.3583 10.4413,0.0003 10.0003,0.0003 C9.5583,0.0003 9.2003,0.3583 9.2003,0.7993 L9.2003,9.2003 L0.7993,9.2003 C0.3583,9.2003 0.0003,9.5583 0.0003,10.0003 C0.0003,10.4413 0.3583,10.7993 0.7993,10.7993 L9.2003,10.7993 L9.2003,19.2003 C9.2003,19.6423 9.5583,20.0003 10.0003,20.0003 C10.4413,20.0003 10.7993,19.6423 10.7993,19.2003 L10.7993,10.7993 L19.2003,10.7993 C19.6423,10.7993 20.0003,10.4413 20.0003,10.0003 C20.0003,9.5583 19.6423,9.2003 19.2003,9.2003" id="Fill-1" fill="#1DBFFF" mask="url(#mask-2)"></path>
        </g>
    </g>
</svg>