<svg width="48px" height="64px" viewBox="0 0 48 64" version="1.1" xmlns="http://www.w3.org/2000/svg" xmlns:xlink="http://www.w3.org/1999/xlink">
    <defs>
        <polygon id="path-10" points="47.9286936 63.8599282 47.9286936 0.0477094078 0 0.0477094078 7.5204775e-21 63.8599282 47.9286936 63.8599282"></polygon>
    </defs>
    <g id="Page-1" stroke="none" stroke-width="1" fill-rule="evenodd">
        <g id="гарантия">
            <path d="M31.135089,9.88626346 C31.6260486,10.1369418 32.2253549,9.93793961 32.4734012,9.44218468 C32.7214474,8.94642976 32.5245919,8.34172079 32.0334936,8.09118249 C25.0802913,4.54429409 16.7044301,5.9004779 11.1917827,11.465537 C4.78461503,17.9333182 4.14327399,28.246281 9.70017572,35.4543335 C9.89661503,35.7090731 10.1901642,35.8425348 10.4870428,35.8425348 C10.7008231,35.8425348 10.9162682,35.7733532 11.098141,35.6303685 C11.532222,35.2893619 11.610326,34.6574845 11.2725225,34.2191475 C6.33171329,27.8103247 6.90271908,18.6396989 12.6005688,12.8878214 C17.5032277,7.93839475 24.9515514,6.73219781 31.135089,9.88626346" id="Fill-1" fill="#1DBFFF"></path>
            <path d="M38.6498497,15.6786836 C38.1587514,15.9290818 37.9617572,16.5337908 38.2096647,17.0296858 C41.3318844,23.2708761 40.1363237,30.7887055 35.2349133,35.7367317 C29.5369249,41.4884691 20.452578,42.0648893 14.103815,37.0773707 C13.6694566,36.7365042 13.0437919,36.8152088 12.7058497,37.2534057 C12.3680462,37.6917427 12.4461503,38.3234801 12.8802312,38.6646267 C16.1328555,41.2198652 20.0232139,42.476758 23.9013642,42.476758 C28.5371098,42.476758 33.155237,40.6805567 36.6438382,37.1587361 C42.155237,31.5950775 43.499237,23.1414757 39.9883006,16.1230425 C39.7401156,15.6272875 39.1410867,15.4284254 38.6498497,15.6786836" id="Fill-3" fill="#1DBFFF"></path>
            <path d="M34.5047584,12.1945908 C34.7534983,12.4165602 34.9991861,12.649733 35.2350243,12.8876674 C35.470585,13.1256018 35.7017064,13.3736193 35.9215908,13.6247177 C36.1184462,13.849488 36.3927121,13.9643239 36.6683653,13.9643239 C36.9028162,13.9643239 37.1382382,13.8811379 37.327741,13.7122451 C37.7400416,13.3444902 37.7787468,12.7091116 37.4144462,12.2929015 C37.1676486,12.0108534 36.9083653,11.7325864 36.6438104,11.465663 C36.3792555,11.1984595 36.1034636,10.9367177 35.8243422,10.6877199 C35.4120416,10.3196849 34.7824925,10.3591772 34.4183306,10.7752473 C34.0537526,11.1913173 34.0924578,11.8268359 34.5047584,12.1945908" id="Fill-5" fill="#1DBFFF"></path>
            <g id="Group-9" transform="translate(0.000000, 0.092429)">
                <mask id="mask-20" fill="white">
                    <use xlink:href="#path-10"></use>
                </mask>
                <g id="Clip-8"></g>
                <path d="M45.7293503,24.9753768 L44.4185064,27.1453549 C44.0005179,27.8375912 43.8388994,28.6599282 43.9637549,29.4608385 L44.3544139,31.9672018 C44.436541,32.4941864 44.2219283,33.0165497 43.7945064,33.3303877 L41.7628301,34.8221339 C41.1124717,35.2996832 40.6499514,35.9973812 40.4608647,36.7863877 L39.8693272,39.2540989 C39.7451653,39.7715606 39.3497896,40.1706853 38.8373272,40.2960245 L36.3926566,40.8930311 C35.6109225,41.0839107 34.919778,41.5508166 34.4467145,42.2074818 L32.9693965,44.2577225 C32.6583676,44.6893374 32.1411884,44.9058451 31.6188763,44.8227991 L29.1366104,44.4284359 C28.3432231,44.3023965 27.5284717,44.4654074 26.8425988,44.8874993 L24.6934197,46.2104928 C24.2436624,46.4872193 23.6845873,46.4872193 23.2349688,46.2104928 L21.0855121,44.8873593 C20.5508532,44.5582565 19.9379514,44.3867028 19.3178358,44.3867028 C19.1424832,44.3867028 18.966437,44.4004271 18.7916393,44.4282958 L16.3086798,44.8226591 C15.7863676,44.905705 15.2690497,44.6889173 14.9582983,44.2574425 L13.4805642,42.2066416 C13.0073618,41.5501164 12.3163561,41.0833505 11.534622,40.8923309 L9.09009017,40.2951842 C8.57748902,40.1699851 8.18211329,39.7707204 8.05809017,39.2533987 L7.46669133,36.7856875 C7.2774659,35.9965409 6.81508439,35.2988429 6.16458728,34.8211536 L4.13360462,33.3296875 C3.70618266,33.0158495 3.49170867,32.4933462 3.57397457,31.9663615 L3.9644948,29.4606985 C4.08935029,28.6596481 3.92787052,27.8373112 3.50974335,27.1449348 L2.19917688,24.9752368 C1.92491098,24.5212149 1.92491098,23.9569786 2.19917688,23.5030967 L3.51002081,21.3331186 C3.92800925,20.6408823 4.08962775,19.8185453 3.96477225,19.017635 L3.57411329,16.5112718 C3.49212486,15.984147 3.70659884,15.4617838 4.13402081,15.1480858 L6.16583584,13.6563396 C6.81605549,13.1786503 7.27857572,12.4810923 7.46766243,11.6919457 L8.05933873,9.22423457 C8.18336185,8.70677287 8.57873757,8.30764814 9.09133873,8.18244902 L11.5358705,7.58544245 C12.3176046,7.39442276 13.0087491,6.92765689 13.4818127,6.27099168 L14.9592694,4.22061094 C15.2701595,3.78913611 15.7873387,3.57234836 16.3097896,3.65553435 L18.7919168,4.04975755 C19.5854428,4.17607702 20.4001942,4.012786 21.0859283,3.59069409 L23.2351075,2.26770066 C23.6848647,1.99097418 24.2439399,1.99097418 24.6935584,2.26770066 L26.8431538,3.59083414 C27.5288879,4.01306608 28.343778,4.17621707 29.1368879,4.05003764 L31.6198474,3.65581444 C32.1418821,3.57318862 32.6594775,3.78941619 32.9702289,4.22089103 L34.4481017,6.27183195 C34.9211653,6.92821707 35.6121711,7.39512298 36.3939052,7.58600263 L38.838437,8.18328928 C39.3510382,8.3084884 39.7464139,8.70761313 39.870437,9.22507484 L40.4619746,11.692646 C40.6510613,12.4819326 41.1134428,13.1796306 41.7639399,13.6571799 L43.7950613,15.148646 C44.2224832,15.462484 44.4369572,15.9848473 44.3548301,16.511972 L43.9641711,19.017635 C43.8393156,19.8186853 44.0007954,20.6408823 44.4189225,21.3333987 L45.729489,23.5030967 C46.0036162,23.9571186 46.0036162,24.5213549 45.7293503,24.9753768 L45.7293503,24.9753768 Z M38.292541,56.7256788 C37.9269919,56.6814249 37.5676855,56.8442958 37.3572347,57.148891 L34.8196162,60.822379 L28.4206335,46.4122958 C28.5547838,46.3938101 28.6917087,46.3938101 28.8272462,46.4152368 L31.3092347,46.8096 C31.6585526,46.8650573 32.0064832,46.8633768 32.3437318,46.8125409 L35.6474081,54.2520858 C35.8131884,54.6254425 36.1765179,54.8467116 36.5570497,54.8467116 C36.6931422,54.8467116 36.8315931,54.8184228 36.9638012,54.758484 C37.465859,54.531333 37.6903214,53.9362871 37.465304,53.4294687 L34.1398474,45.9407685 C34.3002173,45.7905015 34.4486566,45.6241295 34.580726,45.4406722 L36.0580439,43.3902915 C36.1512694,43.2610311 36.265304,43.1502565 36.393489,43.0606284 L42.6977202,57.2571449 L38.292541,56.7256788 Z M13.1501133,60.822379 L10.6123561,57.148891 C10.4020439,56.8442958 10.0421827,56.6812849 9.67704971,56.7256788 L5.27200925,57.2572849 L11.5659746,43.0835956 C11.6809803,43.1690223 11.7841942,43.2713943 11.8693734,43.3895912 L13.3469688,45.4405322 C13.4873618,45.635333 13.6452347,45.8119282 13.8172578,45.9691974 L10.5044254,53.4294687 C10.2794081,53.9362871 10.5038705,54.531193 11.0059283,54.758484 C11.1381364,54.8184228 11.2765873,54.8467116 11.4126798,54.8467116 C11.7932116,54.8467116 12.1566798,54.6253024 12.3223214,54.2520858 L15.6235006,46.8184228 C15.9482636,46.8635168 16.2827376,46.8626766 16.6184601,46.8093199 L19.1012809,46.4149567 C19.249859,46.3914293 19.4001017,46.39353 19.5464601,46.4178976 L13.1501133,60.822379 Z M47.4302983,22.4559895 L46.1197318,20.2864315 C45.947015,20.0006022 45.8804254,19.6611361 45.9318936,19.3304928 L46.3225526,16.8248298 C46.5216277,15.5480508 46.0020902,14.2826153 44.9667607,13.5221777 L42.9356393,12.0308516 C42.6670613,11.83353 42.4761711,11.54574 42.3980671,11.2198582 L41.8066682,8.75228709 C41.5063214,7.4988954 40.5484023,6.53189322 39.3069225,6.22869847 L36.8623908,5.63141182 C36.5395699,5.55256718 36.2543445,5.35986696 36.059015,5.08874223 L34.5814197,3.03794136 C33.8282636,1.99279475 32.5745757,1.46791072 31.3102058,1.66901357 L28.827385,2.06337681 C28.4999861,2.11547309 28.1634312,2.04811204 27.8804254,1.87375755 L25.7308301,0.550764114 C24.6412578,-0.120045514 23.2875468,-0.11990547 22.1978358,0.550764114 L20.0486566,1.87375755 C19.7656509,2.04797199 19.4293734,2.115193 19.1016971,2.06323676 L16.6194312,1.66901357 C15.3550613,1.46805077 14.1012347,1.9926547 13.3480786,3.03780131 L11.8707607,5.08818206 C11.6752925,5.35930678 11.3900671,5.55186696 11.0672462,5.6307116 L8.62285318,6.22785821 C7.38137341,6.53091291 6.42331561,7.4979151 6.12283006,8.75116674 L5.53129249,11.2190179 C5.45318844,11.5447597 5.26229827,11.8328298 4.99372023,12.0298713 L2.96218266,13.5214775 C1.92685318,14.281635 1.40717688,15.5469304 1.60611329,16.8238495 L1.99677225,19.3303527 C2.04837919,19.6609961 1.98165087,20.0004621 1.8089341,20.2861514 L0.498228902,22.4561295 C-0.16614104,23.5561733 -0.16614104,24.9227204 0.498228902,26.022484 L1.80879538,28.192042 C1.98151214,28.4780114 2.04824046,28.8174775 1.99663353,29.1481208 L1.60597457,31.6537838 C1.40689942,32.9305628 1.92657572,34.1961383 2.9619052,34.9562958 L4.99302659,36.4477619 C5.2614659,36.6448035 5.45235607,36.9328735 5.53046012,37.2586153 L6.12199769,39.7261864 C6.42220578,40.9795781 7.38012486,41.9465803 8.62160462,42.2499151 L9.64236763,42.499333 L2.73439075,58.0553943 C2.58761618,58.3860376 2.62826358,58.7705978 2.8409341,59.0625891 C3.0534659,59.3544403 3.40500347,59.5083484 3.76153526,59.4652149 L9.32010173,58.7942652 L12.5223676,63.4295737 C12.7097896,63.7006985 13.0156855,63.8599282 13.3392,63.8599282 C13.3701364,63.8599282 13.401489,63.8585278 13.4327029,63.8555869 C13.7899283,63.8215562 14.1016509,63.5962258 14.2484254,63.2657225 L21.3038705,47.3776175 L22.1978358,47.9278495 C22.742622,48.2631142 23.3534428,48.4308867 23.9644023,48.4308867 C24.5752231,48.4308867 25.1860439,48.2631142 25.7308301,47.9278495 L26.6569803,47.3577313 L33.721304,63.2657225 C33.8680786,63.5963659 34.1796624,63.8215562 34.5370266,63.8555869 C34.5682405,63.8585278 34.5994543,63.8599282 34.6305295,63.8599282 C34.9540439,63.8599282 35.2600786,63.7006985 35.4473618,63.4295737 L38.6496277,58.7942652 L44.2081942,59.4652149 C44.5644486,59.5079282 44.9162636,59.3544403 45.1289341,59.0625891 C45.3414659,58.7705978 45.382252,58.3860376 45.2353387,58.0553943 L38.3234775,42.4907904 L39.3058127,42.2508954 C40.5472925,41.9477007 41.5053503,40.9806985 41.8058358,39.7274468 L42.3973734,37.2597357 C42.4754775,36.9338538 42.6663676,36.6459239 42.9349457,36.4487422 L44.966622,34.9571361 C46.0019514,34.1969786 46.521489,32.9316832 46.3225526,31.6549042 L45.9318936,29.1484009 C45.8804254,28.8177575 45.947015,28.4782915 46.1197318,28.1924621 L47.4305757,26.022484 C48.0948069,24.9224403 48.0948069,23.5558932 47.4302983,22.4559895 L47.4302983,22.4559895 Z" id="Fill-7" fill="#1DBFFF" mask="url(#mask-20)"></path>
            </g>
            <path d="M20.5896277,21.1731606 C20.933674,21.1319877 21.2318012,20.9133794 21.3770497,20.5957602 L23.9641942,14.9336508 L26.5514775,20.5957602 C26.6965873,20.9133794 26.9947145,21.1319877 27.3387607,21.1731606 L33.472911,21.9074101 L28.9377434,26.1410731 C28.6833156,26.3785873 28.5695584,26.7324779 28.6369803,27.0754451 L29.840726,33.1912963 L24.4505757,30.1457646 C24.2995006,30.0603379 24.131778,30.0174845 23.9640555,30.0174845 C23.7963329,30.0174845 23.6287491,30.0601978 23.4775353,30.1457646 L18.087385,33.1912963 L19.2911306,27.0754451 C19.3588301,26.7323379 19.2447954,26.3785873 18.9905064,26.1410731 L14.4553387,21.9074101 L20.5896277,21.1731606 Z M12.7968416,23.0983422 L17.2286566,27.2355151 L16.0522405,33.2121628 C15.9137896,33.9157427 16.1848647,34.6147011 16.7598936,35.0362328 C17.0770266,35.2689856 17.4450728,35.3866223 17.8154775,35.3866223 C18.1166566,35.3866223 18.4192231,35.308898 18.697096,35.151909 L23.9641942,32.1756989 L29.2314312,35.151909 C29.8515468,35.5022985 30.5937434,35.4580446 31.1686335,35.0363729 C31.7435237,34.6147011 32.0145988,33.9157427 31.876148,33.2121628 L30.6997318,27.2356551 L35.1314081,23.0984823 C35.6531653,22.6114101 35.8408647,21.8850031 35.6212578,21.2028499 C35.4016509,20.5205567 34.8270382,20.0442678 34.1213272,19.9596814 L28.1271538,19.2422372 L25.5988301,13.7091081 C25.3012578,13.0577646 24.6747607,12.6531781 23.9641942,12.6531781 C23.2536277,12.6531781 22.6272694,13.0577646 22.3295584,13.7091081 L19.8013734,19.2423772 L13.8070613,19.9598214 C13.101489,20.0444079 12.5265988,20.5206967 12.3071306,21.2029899 C12.0876624,21.884863 12.2752231,22.61127 12.7968416,23.0983422 L12.7968416,23.0983422 Z" id="Fill-10" fill="#1DBFFF"></path>
        </g>
    </g>
</svg>