<?xml version="1.0" encoding="UTF-8" standalone="no"?>
<svg width="24px" height="20px" viewBox="0 0 24 20" version="1.1" xmlns="http://www.w3.org/2000/svg" xmlns:xlink="http://www.w3.org/1999/xlink">
    <!-- Generator: Sketch 41 (35326) - http://www.bohemiancoding.com/sketch -->
    <title>Корзина</title>
    <desc>Created with Sketch.</desc>
    <defs></defs>
    <g id="Page-1" stroke="none" stroke-width="1" fill="currentColor" fill-rule="evenodd">
        <rect id="Rectangle-4" fill="#1DBFFF" x="-1182" y="-26" width="1440" height="72"></rect>
        <path d="M17,18.4892446 C16.48,18.4892446 16.06,18.0890445 16.06,17.5887944 C16.06,17.0985493 16.48,16.6983492 17,16.6983492 C17.51,16.6983492 17.93,17.0985493 17.93,17.5887944 C17.93,18.0890445 17.51,18.4892446 17,18.4892446 L17,18.4892446 Z M17,15.1775888 C15.61,15.1775888 14.48,16.2581291 14.48,17.5887944 C14.48,18.9194597 15.61,20 17,20 C18.39,20 19.51,18.9194597 19.51,17.5887944 C19.51,16.2581291 18.39,15.1775888 17,15.1775888 L17,15.1775888 Z M17.46,11.995998 C17.33,12.086043 17.17,12.156078 17,12.156078 L9.67,12.156078 C9.49,12.156078 9.33,12.086043 9.2,11.995998 L4.91,4.85242621 L21.76,4.85242621 L17.46,11.995998 Z M23.32,3.34167084 L4,3.34167084 L2.26,0.470235118 C2.15,0.190095048 1.88,3.55271368e-15 1.57,3.55271368e-15 L0.75,3.55271368e-15 C0.34,3.55271368e-15 0,0.330165083 0,0.750375188 C0,1.17058529 0.34,1.51075538 0.75,1.51075538 L1.07,1.51075538 L8.01,13.0365183 C8.49,13.6668334 9.02,13.6668334 9.67,13.6668334 L17,13.6668334 C17.64,13.6668334 18.17,13.6668334 18.66,13.0365183 L23.91,4.31215608 C24.16,3.88194097 23.84,3.34167084 23.32,3.34167084 L23.32,3.34167084 Z M9.67,18.4892446 C9.15,18.4892446 8.73,18.0890445 8.73,17.5887944 C8.73,17.0985493 9.15,16.6983492 9.67,16.6983492 C10.18,16.6983492 10.6,17.0985493 10.6,17.5887944 C10.6,18.0890445 10.18,18.4892446 9.67,18.4892446 L9.67,18.4892446 Z M9.67,15.1775888 C8.28,15.1775888 7.15,16.2581291 7.15,17.5887944 C7.15,18.9194597 8.28,20 9.67,20 C11.06,20 12.18,18.9194597 12.18,17.5887944 C12.18,16.2581291 11.06,15.1775888 9.67,15.1775888 L9.67,15.1775888 Z" fill="currentColor"></path>
    </g>
</svg>