<?xml version="1.0" encoding="UTF-8" standalone="no"?>
<svg width="24px" height="24px" viewBox="0 0 24 24" version="1.1" xmlns="http://www.w3.org/2000/svg" xmlns:xlink="http://www.w3.org/1999/xlink">
    <!-- Generator: Sketch 41 (35326) - http://www.bohemiancoding.com/sketch -->
    <title>Телефон</title>
    <desc>Created with Sketch.</desc>
    <defs></defs>
    <g id="Page-1" stroke="none" stroke-width="1" fill="none" fill-rule="evenodd">
        <g id="Menu" transform="translate(-20.000000, -800.000000)">
            <rect id="Rectangle" fill="#FFFFFF" x="0" y="0" width="270" height="900"></rect>
            <rect id="Rectangle-2" fill="#1DBFFF" x="0" y="780" width="270" height="120"></rect>
            <g id="Group-2" transform="translate(20.000000, 800.000000)" fill="#FFFFFF">
                <rect id="Rectangle-3-Copy-11" fill-opacity="0" x="0" y="0" width="24" height="24"></rect>
                <path d="M21.4237956,0.803795607 L21.4337956,0.793795607 L21.3337956,0.683795607 C20.4037956,-0.236204393 18.8937956,-0.226204393 17.9637956,0.703795607 L13.2437956,5.42379561 C12.4837956,6.36379561 12.5437956,7.74379561 13.4037956,8.61379561 L13.5137956,8.71379561 L14.5037956,9.70379561 L14.6037956,9.80379561 C14.9137956,10.1137956 14.9137956,10.6237956 14.5937956,10.9337956 L12.7637956,12.7637956 L10.9337956,14.5937956 C10.6237956,14.9137956 10.1137956,14.9137956 9.80379561,14.6037956 L9.70379561,14.5037956 L8.71379561,13.5137956 L8.61379561,13.4037956 C7.74379561,12.5437956 6.36379561,12.4837956 5.42379561,13.2437956 L0.703795607,17.9637956 C-0.226204393,18.8937956 -0.236204393,20.4037956 0.683795607,21.3337956 L0.793795607,21.4337956 L0.803795607,21.4237956 C4.20379561,24.8237956 9.68379561,24.8637956 13.0437956,21.5137956 L13.0337956,21.5037956 L17.2737956,17.2737956 L16.1337956,16.1437956 L11.9037956,20.3737956 L11.9137956,20.3837956 C9.17379561,23.1137956 4.70379561,23.0837956 1.92379561,20.3137956 L1.81379561,20.2037956 C1.50379561,19.8937956 1.51379561,19.3937956 1.82379561,19.0737956 L6.35379561,14.5437956 C6.67379561,14.2237956 7.17379561,14.2237956 7.48379561,14.5337956 L7.58379561,14.6337956 L7.58379561,14.6437956 L8.58379561,15.6337956 L8.68379561,15.7337956 C9.60379561,16.6537956 11.1137956,16.6437956 12.0437956,15.7137956 L13.8837956,13.8837956 L15.7137956,12.0437956 C16.6437956,11.1137956 16.6537956,9.60379561 15.7337956,8.68379561 L15.6337956,8.58379561 L14.6437956,7.58379561 L14.6337956,7.58379561 L14.5337956,7.48379561 C14.2237956,7.17379561 14.2237956,6.67379561 14.5437956,6.35379561 L19.0737956,1.82379561 C19.3937956,1.51379561 19.8937956,1.50379561 20.2037956,1.81379561 L20.3137956,1.92379561 C23.0837956,4.70379561 23.1137956,9.17379561 20.3837956,11.9137956 L20.3737956,11.9037956 L16.1437956,16.1337956 L17.2737956,17.2737956 L21.5037956,13.0337956 L21.5137956,13.0437956 C24.8637956,9.68379561 24.8237956,4.20379561 21.4237956,0.803795607" id="Fill-1"></path>
            </g>
        </g>
    </g>
</svg>