<!--<?xml version="1.0" encoding="UTF-8" standalone="no"?>-->
<svg width="64px" height="64px" viewBox="0 0 64 64" version="1.1" xmlns="http://www.w3.org/2000/svg" xmlns:xlink="http://www.w3.org/1999/xlink">
    <!-- Generator: Sketch 41 (35326) - http://www.bohemiancoding.com/sketch -->
    <!--<title>доставка</title>-->
    <!--<desc>Created with Sketch.</desc>-->
    <defs>
        <polygon id="path-1" points="17.0551015 40.4658637 17.0551015 0.136861538 0.0691835853 0.136861538 0.0691835853 40.4658637 17.0551015 40.4658637"></polygon>
    </defs>
    <g id="Page-1" stroke="none" stroke-width="1" fill="none" fill-rule="evenodd">
        <g id="доставка">
            <path d="M43.9594989,62.0756396 L42.0723974,62.0756396 C41.5518272,62.0756396 41.1291231,62.5057758 41.1291231,63.0360615 C41.1291231,63.5662066 41.5518272,63.9964835 42.0723974,63.9964835 L43.9594989,63.9964835 C44.480622,63.9964835 44.9033261,63.5662066 44.9033261,63.0360615 C44.9033261,62.5057758 44.480622,62.0756396 43.9594989,62.0756396" id="Fill-1" fill="#1DBFFF"></path>
            <path d="M36.4104017,62.0756396 L26.9740648,62.0756396 C26.4536328,62.0756396 26.0307905,62.5057758 26.0307905,63.0360615 C26.0307905,63.5662066 26.4536328,63.9964835 26.9740648,63.9964835 L36.4104017,63.9964835 C36.9315248,63.9964835 37.3542289,63.5662066 37.3542289,63.0360615 C37.3542289,62.5057758 36.9315248,62.0756396 36.4104017,62.0756396" id="Fill-3" fill="#1DBFFF"></path>
            <path d="M14.9395076,52.4731077 L10.0233952,52.4731077 C9.50296328,52.4731077 9.08012095,52.903244 9.08012095,53.4335297 C9.08012095,53.9636747 9.50296328,54.3939516 10.0233952,54.3939516 L14.9395076,54.3939516 C15.4606307,54.3939516 15.8833348,53.9636747 15.8833348,53.4335297 C15.8833348,52.903244 15.4606307,52.4731077 14.9395076,52.4731077" id="Fill-5" fill="#1DBFFF"></path>
            <path d="M21.3120691,62.0756396 L0.943758099,62.0756396 C0.422911447,62.0756396 6.91144709e-05,62.5057758 6.91144709e-05,63.0360615 C6.91144709e-05,63.5662066 0.422911447,63.9964835 0.943758099,63.9964835 L21.3120691,63.9964835 C21.8331922,63.9964835 22.2560346,63.5662066 22.2560346,63.0360615 C22.2560346,62.5057758 21.8331922,62.0756396 21.3120691,62.0756396" id="Fill-7" fill="#1DBFFF"></path>
            <g id="Group-11" transform="translate(46.721382, 19.688791)">
                <mask id="mask-2" fill="white">
                    <use xlink:href="#path-1"></use>
                </mask>
                <g id="Clip-10"></g>
                <path d="M6.67500648,38.5461451 C4.0735378,38.5461451 1.9562851,36.3922286 1.9562851,33.7450198 C1.9562851,31.0972484 4.07298488,28.9438945 6.67500648,28.9438945 C9.27647516,28.9438945 11.3931749,31.0972484 11.3931749,33.7450198 C11.3931749,36.3922286 9.27647516,38.5461451 6.67500648,38.5461451 M15.8347473,18.6626813 L13.2483456,16.0308044 L12.3364492,4.93784615 C12.3364492,2.29063736 10.2203024,0.136861538 7.61828078,0.136861538 L1.0130108,0.136861538 C0.491887689,0.136861538 0.0691835853,0.566997802 0.0691835853,1.09672088 C0.0691835853,1.62686593 0.491887689,2.05714286 1.0130108,2.05714286 L7.61828078,2.05714286 C9.15289849,2.05714286 10.4492095,3.37638681 10.4519741,5.0176 L11.311067,15.5005187 L8.20146868,15.5005187 L9.40558099,13.0488264 C9.63987905,12.5746637 9.45036717,11.9983824 8.98384449,11.7609495 C8.5167689,11.5230945 7.95085961,11.7159385 7.71766739,12.1901011 L6.09181857,15.499956 L1.0130108,15.499956 C0.491887689,15.499956 0.0697365011,15.930233 0.0697365011,16.460378 C0.0697365011,16.9901011 0.491887689,17.420378 1.0130108,17.420378 L11.9460907,17.420378 L14.5005616,20.0197626 C15.0384104,20.5670681 15.1658575,21.8263912 15.167378,22.2219253 L15.167378,23.1817846 L14.2241037,23.1817846 C13.7031188,23.1817846 13.2802765,23.6120615 13.2802765,24.1423473 C13.2802765,24.6719297 13.7031188,25.1022066 14.2241037,25.1022066 L15.167378,25.1022066 L15.167378,32.7840352 L13.2046652,32.7840352 C12.7451922,29.5318505 9.99623326,27.0230505 6.67500648,27.0230505 C3.03239741,27.0230505 0.0691835853,30.0379429 0.0691835853,33.7444571 C0.0691835853,37.4511121 3.03239741,40.4658637 6.67500648,40.4658637 C9.99623326,40.4658637 12.7451922,37.9570637 13.2046652,34.7048791 L16.1112052,34.7048791 C16.6323283,34.7048791 17.0551706,34.2747429 17.0551706,33.7444571 L17.0551706,22.2219253 C17.0551706,21.9851956 17.0210281,19.8686945 15.8347473,18.6626813" id="Fill-9" fill="#1DBFFF" mask="url(#mask-2)"></path>
            </g>
            <path d="M21.3120691,54.3936703 C20.7921901,54.3936703 20.3687948,53.9629714 20.3687948,53.433811 C20.3687948,52.9046505 20.7921901,52.473389 21.3120691,52.473389 C21.8320864,52.473389 22.2560346,52.9046505 22.2560346,53.433811 C22.2560346,53.9629714 21.8320864,54.3936703 21.3120691,54.3936703 M21.3120691,50.5531077 C19.7516026,50.5531077 18.4816933,51.8453451 18.4816933,53.433811 C18.4816933,55.0217143 19.7516026,56.3146549 21.3120691,56.3146549 C22.8730886,56.3146549 24.1431361,55.0217143 24.1431361,53.433811 C24.1431361,51.8453451 22.8730886,50.5531077 21.3120691,50.5531077" id="Fill-12" fill="#1DBFFF"></path>
            <path d="M62.8325875,62.0756396 L47.7343931,62.0756396 C47.21327,62.0756396 46.7905659,62.5057758 46.7905659,63.0360615 C46.7905659,63.5662066 47.21327,63.9964835 47.7343931,63.9964835 L62.8325875,63.9964835 C63.3531577,63.9964835 63.776,63.5662066 63.776,63.0360615 C63.776,62.5057758 63.3537106,62.0756396 62.8325875,62.0756396" id="Fill-14" fill="#1DBFFF"></path>
            <path d="M53.3963888,54.3936703 C52.8763715,54.3936703 52.4525616,53.9629714 52.4525616,53.433811 C52.4525616,52.9046505 52.8763715,52.473389 53.3963888,52.473389 C53.916406,52.473389 54.3396631,52.9046505 54.3396631,53.433811 C54.3396631,53.9629714 53.916406,54.3936703 53.3963888,54.3936703 M53.3963888,50.5531077 C51.8353693,50.5531077 50.5653218,51.8453451 50.5653218,53.433811 C50.5653218,55.0217143 51.8353693,56.3146549 53.3963888,56.3146549 C54.9568553,56.3146549 56.2273175,55.0217143 56.2273175,53.433811 C56.2273175,51.8453451 54.9568553,50.5531077 53.3963888,50.5531077" id="Fill-16" fill="#1DBFFF"></path>
            <path d="M21.3120691,58.2349363 C18.7106004,58.2349363 16.5940389,56.0810198 16.5940389,53.433811 C16.5940389,50.7860396 18.7106004,48.6326857 21.3120691,48.6326857 C23.9142289,48.6326857 26.0307905,50.7860396 26.0307905,53.433811 C26.0307905,56.0810198 23.9142289,58.2349363 21.3120691,58.2349363 M43.9594989,0 L4.71823758,0 C2.11663067,0 6.91144709e-05,2.15377582 6.91144709e-05,4.80098462 L6.91144709e-05,49.5926857 C6.91144709e-05,52.2854681 2.07239741,54.394233 4.71823758,54.394233 C5.23922246,54.394233 5.66192657,53.9640967 5.66192657,53.433811 C5.66192657,52.9036659 5.23922246,52.473389 4.71823758,52.473389 C3.13109287,52.473389 1.8870324,51.2080176 1.8870324,49.5931077 L1.8870324,4.80098462 C1.8870324,3.21308132 3.15777106,1.92028132 4.71823758,1.92028132 L43.0162246,1.92028132 L43.0162246,42.8711385 L7.90455292,42.8711385 C7.38398272,42.8711385 6.96127862,43.3014154 6.96127862,43.8311385 C6.96127862,44.3612835 7.38398272,44.7915604 7.90455292,44.7915604 L43.0162246,44.7915604 L43.0162246,52.473389 L27.842419,52.473389 C27.3828078,49.2212044 24.6328812,46.7118418 21.3120691,46.7118418 C17.6695983,46.7118418 14.7067991,49.7272967 14.7067991,53.433811 C14.7067991,57.1399033 17.6695983,60.1552176 21.3120691,60.1552176 C24.6328812,60.1552176 27.3828078,57.6458549 27.842419,54.3936703 L43.9594989,54.3936703 C44.480622,54.3936703 44.9033261,53.9635341 44.9033261,53.433811 L44.9033261,0.960421978 C44.9033261,0.430136264 44.480622,0 43.9594989,0" id="Fill-18" fill="#1DBFFF"></path>
        </g>
    </g>
</svg>