<?xml version="1.0" encoding="UTF-8" standalone="no"?>
<svg width="24px" height="24px" viewBox="0 0 24 24" version="1.1" xmlns="http://www.w3.org/2000/svg" xmlns:xlink="http://www.w3.org/1999/xlink">
    <!-- Generator: Sketch 41 (35326) - http://www.bohemiancoding.com/sketch -->
    <title>Сантехника</title>
    <desc>Created with Sketch.</desc>
    <defs></defs>
    <g id="Page-1" stroke="none" stroke-width="1" fill="none" fill-rule="evenodd">
        <g id="Menu" transform="translate(-20.000000, -92.000000)">
            <rect id="Rectangle" fill="#FFFFFF" x="0" y="0" width="270" height="900"></rect>
            <path d="M23.208,108.121 L40.792,108.121 L40.792,106.963 L23.208,106.963 L23.208,108.121 Z M36.695,112.928 L36.695,112.925 L27.305,112.925 L27.305,112.928 C25.318,112.928 23.662,111.539 23.288,109.696 L40.712,109.696 C40.338,111.539 38.682,112.928 36.695,112.928 L36.695,112.928 Z M43.198,105.388 L23.208,105.388 L23.208,97.596 C23.208,95.375 25.043,93.575 27.305,93.575 C28.439,93.575 29.461,94.031 30.203,94.762 L29.088,95.857 C28.774,96.165 28.774,96.664 29.088,96.972 C29.402,97.28 29.91,97.28 30.224,96.972 L33.542,93.715 C33.855,93.407 33.855,92.908 33.542,92.6 C33.228,92.292 32.719,92.292 32.406,92.6 L31.336,93.649 C30.304,92.634 28.882,92 27.305,92 C24.156,92 21.604,94.506 21.604,97.597 L21.604,105.388 L20.802,105.388 C20.359,105.388 20,105.741 20,106.176 C20,106.611 20.359,106.963 20.802,106.963 L21.604,106.963 L21.604,108.908 L21.604,108.908 C21.605,111.326 23.172,113.38 25.36,114.161 L24.856,114.656 C24.542,114.964 24.542,115.462 24.856,115.769 C25.169,116.077 25.677,116.077 25.99,115.769 L27.07,114.709 C27.134,114.646 27.175,114.572 27.213,114.498 C27.244,114.498 27.274,114.502 27.305,114.502 L36.787,114.502 L36.787,114.498 L36.787,114.498 C36.825,114.572 36.866,114.646 36.93,114.709 L38.01,115.769 C38.323,116.077 38.831,116.077 39.144,115.769 C39.458,115.462 39.458,114.964 39.144,114.656 L38.64,114.161 C40.828,113.38 42.395,111.326 42.396,108.908 L42.396,108.908 L42.396,108.906 C42.396,108.906 42.396,108.906 42.396,108.905 L42.396,108.905 L42.396,106.963 L43.198,106.963 C43.641,106.963 44,106.611 44,106.176 C44,105.741 43.641,105.388 43.198,105.388 L43.198,105.388 Z" id="Page-1" fill="#282829" opacity="0.8"></path>
        </g>
    </g>
</svg>