<?xml version="1.0" encoding="UTF-8" standalone="no"?>
<svg width="24px" height="20px" viewBox="0 0 24 20" version="1.1" xmlns="http://www.w3.org/2000/svg" xmlns:xlink="http://www.w3.org/1999/xlink">
    <!-- Generator: Sketch 41 (35326) - http://www.bohemiancoding.com/sketch -->
    <title>Юзер</title>
    <desc>Created with Sketch.</desc>
    <defs></defs>
    <g id="Page-1" stroke="none" stroke-width="1" fill="currentColor" fill-rule="evenodd">
        <rect id="Rectangle-4" fill="#1DBFFF" x="-1214" y="-26" width="1440" height="72"></rect>
        <path d="M21.4693806,18.4345384 L12.0323063,18.4345384 L11.9679375,18.4345384 L2.53086321,18.4345384 C2.18488073,18.4245099 1.50096189,18.4365442 1.65886668,17.8358321 C2.08430443,16.2633505 3.49237264,15.1020408 5.18104872,15.101038 L18.8181893,15.101038 C20.5068654,15.101038 21.9149336,16.2633505 22.3413771,17.8358321 C22.4992819,18.4365442 21.8143573,18.4245099 21.4693806,18.4345384 M23.9717189,17.8358321 C23.5181198,15.3688011 21.3879138,13.4984706 18.8181893,13.4984706 L5.18205449,13.4984706 C2.61233001,13.4984706 0.482123967,15.3688011 0.0285248522,17.8358321 C-0.188719957,19.0061676 0.870348487,20 2.0008261,20 L11.9679375,20 L12.0323063,20 L21.9994177,20 C23.1288895,20 24.187958,19.0061676 23.9717189,17.8358321 M12.0001219,1.61460161 C14.3968551,1.61460161 16.340995,3.55212355 16.340995,5.94293737 C16.340995,8.33274833 14.3968551,10.2702703 12.0001219,10.2702703 C9.60238289,10.2702703 7.65924876,8.33274833 7.65924876,5.94293737 C7.65924876,3.55212355 9.60238289,1.61460161 12.0001219,1.61460161 M12.0001219,11.8848719 C15.2909784,11.8848719 17.9592677,9.22428922 17.9592677,5.94293737 C17.9592677,2.66058266 15.2909784,0 12.0001219,0 C8.70825958,0 6.03997033,2.66058266 6.03997033,5.94293737 C6.03997033,9.22428922 8.70825958,11.8848719 12.0001219,11.8848719" id="Fill-1" fill="currentColor"></path>
    </g>
</svg>