<?xml version="1.0" encoding="UTF-8" standalone="no"?>
<svg width="24px" height="24px" viewBox="0 0 24 24" version="1.1" xmlns="http://www.w3.org/2000/svg" xmlns:xlink="http://www.w3.org/1999/xlink">
    <!-- Generator: Sketch 41 (35326) - http://www.bohemiancoding.com/sketch -->
    <title>Акции</title>
    <desc>Created with Sketch.</desc>
    <defs>
        <polygon id="path-1" points="24 23.9998 24 0 0.0003 0 0.0003 23.9998 24 23.9998"></polygon>
    </defs>
    <g id="Page-1" stroke="none" stroke-width="1" fill="none" fill-rule="evenodd">
        <g id="Menu" transform="translate(-20.000000, -378.000000)">
            <rect id="Rectangle" fill="#FFFFFF" x="0" y="0" width="270" height="900"></rect>
            <g id="Page-1" opacity="0.8" transform="translate(20.000000, 378.000000)">
                <mask id="mask-2" fill="white">
                    <use xlink:href="#path-1"></use>
                </mask>
                <g id="Clip-2"></g>
                <path d="M22.4013,9.7918 L20.8023,9.7918 L16.2003,9.7918 L16.2003,4.7278 L21.5983,4.7278 C22.0423,4.7278 22.4013,5.0818 22.4013,5.5188 L22.4013,9.7918 Z M20.8023,21.6358 C20.8023,22.0718 20.4433,22.4258 20.0003,22.4258 L14.6003,22.4258 L14.6003,11.3668 L13.0013,11.3668 L13.0013,22.4258 L10.9983,22.4258 L10.9983,11.3668 L9.3993,11.3668 L9.3993,22.4258 L4.0003,22.4258 C3.5563,22.4258 3.1973,22.0718 3.1973,21.6348 L3.1973,11.3668 L7.8003,11.3668 L9.3993,11.3668 L14.6003,11.3668 L16.2003,11.3668 L20.8023,11.3668 L20.8023,21.6358 Z M1.5983,9.7918 L1.5983,5.5178 C1.5983,5.0818 1.9573,4.7278 2.4003,4.7278 L7.8003,4.7278 L7.8003,9.7918 L3.1973,9.7918 L1.5983,9.7918 Z M7.7423,1.5858 C7.9633,1.6098 8.2483,1.6868 8.3683,1.8058 L9.7373,3.1538 L9.3993,3.1538 L7.8003,3.1538 C7.3993,3.1538 7.0703,2.7128 7.0103,2.3058 C7.0403,1.9178 7.3483,1.6148 7.7423,1.5858 L7.7423,1.5858 Z M9.3993,9.7918 L14.6003,9.7918 L14.6003,4.7278 L9.3993,4.7278 L9.3993,9.7918 Z M15.6313,1.8058 C15.7523,1.6868 16.0363,1.6098 16.2573,1.5858 C16.6513,1.6148 16.9593,1.9178 16.9893,2.3058 C16.9293,2.7128 16.6003,3.1538 16.2003,3.1538 L14.6003,3.1538 L14.2623,3.1538 L15.6313,1.8058 Z M21.5983,3.1538 L18.4533,3.1538 C18.5433,2.9058 18.6003,2.6428 18.6003,2.3638 C18.6003,1.0588 17.5253,-0.0002 16.1993,-0.0002 C15.5363,-0.0002 14.9363,0.2648 14.5013,0.6928 L14.5003,0.6918 L12.0003,3.1538 L11.9993,3.1538 L9.4983,0.6928 C9.0643,0.2648 8.4633,-0.0002 7.8003,-0.0002 C6.4743,-0.0002 5.3993,1.0588 5.3993,2.3638 C5.3993,2.6428 5.4573,2.9058 5.5473,3.1538 L2.4013,3.1538 C1.0753,3.1538 0.0003,4.2118 0.0003,5.5178 L0.0003,9.7918 L0.0003,11.3668 L1.5983,11.3668 L1.5983,21.6358 C1.5983,22.9408 2.6743,23.9998 4.0003,23.9998 L20.0003,23.9998 C21.3263,23.9998 22.4013,22.9418 22.4013,21.6358 L22.4013,11.3668 L24.0003,11.3668 L24.0003,9.7918 L24.0003,5.5178 C24.0003,4.2128 22.9243,3.1538 21.5983,3.1538 L21.5983,3.1538 Z" id="Fill-1" fill="#282829" mask="url(#mask-2)"></path>
            </g>
        </g>
    </g>
</svg>