<?xml version="1.0" encoding="UTF-8" standalone="no"?>
<svg width="24px" height="20px" viewBox="0 0 24 20" version="1.1" xmlns="http://www.w3.org/2000/svg" xmlns:xlink="http://www.w3.org/1999/xlink">
    <!-- Generator: Sketch 41 (35326) - http://www.bohemiancoding.com/sketch -->
    <title>Избранное</title>
    <desc>Created with Sketch.</desc>
    <defs></defs>
    <g id="Page-1" stroke="none" stroke-width="1" fill="currentColor" fill-rule="evenodd">
        <rect id="Rectangle-4" fill="#1DBFFF" x="-1148" y="-26" width="1440" height="72"></rect>
        <path d="M20.9971757,9.67175 L12.4198682,18.17375 C12.289909,18.24275 12.1499529,18.29175 12,18.29175 C11.8500471,18.29175 11.710091,18.24275 11.5801318,18.17375 L3.00282435,9.67175 C2.06311933,8.74375 1.60326369,7.52875 1.60326369,6.31475 C1.60326369,5.09975 2.06311933,3.88575 3.00282435,2.96775 C4.86224065,1.14075 7.84130548,1.12075 9.7207155,2.90775 C9.83068098,3.01675 10.5104676,3.65875 10.6304299,3.73775 C11.060295,4.11275 11.5301475,4.29975 12,4.29975 C12.4698525,4.29975 12.939705,4.11275 13.3695701,3.73775 C13.4895324,3.65875 14.169319,3.01675 14.2792845,2.90775 C16.1586945,1.12075 19.1377594,1.14075 20.9971757,2.96775 C21.9368807,3.88575 22.3967363,5.09975 22.3967363,6.31475 C22.3967363,7.52875 21.9368807,8.74375 20.9971757,9.67175 M22.126821,1.85175 C19.6276056,-0.61725 15.5788765,-0.61725 13.0796611,1.85175 L12.5998117,2.36475 C12.4398619,2.52275 12.219931,2.60175 12,2.60175 C11.780069,2.60175 11.5601381,2.52275 11.4001883,2.36475 L10.9203389,1.85175 C8.42112346,-0.61725 4.37239442,-0.61725 1.87317896,1.85175 C-0.616039639,4.30975 -0.626036501,8.29875 1.85318523,10.76775 L1.8631821,10.77775 C1.87317896,10.77775 1.87317896,10.77775 1.87317896,10.78775 C1.87317896,10.78775 4.03250112,12.92975 6.20182013,15.08275 C8.38113601,17.23575 10.5704488,19.39775 10.6304299,19.43775 C11.060295,19.81275 11.5201506,19.99975 12,19.99975 C12.4798494,19.99975 12.939705,19.81275 13.3695701,19.43775 C13.4295512,19.39775 15.618864,17.23575 17.7981799,15.08275 C19.9674989,12.92975 22.126821,10.78775 22.126821,10.78775 C22.126821,10.77775 22.126821,10.77775 22.1368179,10.77775 L22.1468148,10.76775 C24.6260365,8.29875 24.6160396,4.30975 22.126821,1.85175" id="Fill-1" fill="currentColor"></path>
    </g>
</svg>