<?xml version="1.0" encoding="UTF-8" standalone="no"?>
<svg width="64px" height="64px" viewBox="0 0 64 64" version="1.1" xmlns="http://www.w3.org/2000/svg" xmlns:xlink="http://www.w3.org/1999/xlink">
    <!-- Generator: Sketch 41 (35326) - http://www.bohemiancoding.com/sketch -->
    <title>оплата</title>
    <desc>Created with Sketch.</desc>
    <defs>
        <polygon id="path-1" points="5.54112554e-05 63.8599562 63.9145281 63.8599562 63.9145281 0.0487632385 5.54112554e-05 0.0487632385 5.54112554e-05 63.8599562"></polygon>
    </defs>
    <g id="Page-1" stroke="none" stroke-width="1" fill="none" fill-rule="evenodd">
        <g id="оплата">
            <g id="Group-3" transform="translate(0.000000, 0.091309)">
                <mask id="mask-2" fill="white">
                    <use xlink:href="#path-1"></use>
                </mask>
                <g id="Clip-2"></g>
                <path d="M60.9371983,38.3087195 L37.9782372,38.3087195 L37.9782372,25.0649208 L61.9296139,25.0649208 L61.9296139,37.305446 C61.9296139,37.8587589 61.4845229,38.3087195 60.9371983,38.3087195 L60.9371983,38.3087195 Z M37.9782372,23.0582337 L61.9296139,23.0582337 L61.9296139,19.7138486 L37.9782372,19.7138486 L37.9782372,23.0582337 Z M8.07209004,22.7907501 L8.07209004,3.05872385 C8.07209004,2.50541094 8.51718095,2.05545033 9.06450563,2.05545033 L28.913787,2.05545033 C29.4611117,2.05545033 29.9062026,2.50541094 29.9062026,3.05872385 L29.9062026,22.7907501 L8.07209004,22.7907501 Z M60.9371983,11.0183912 L51.8065316,11.0183912 C51.2583758,11.0183912 50.814116,11.4676516 50.814116,12.0216648 C50.814116,12.5758179 51.2583758,13.0250783 51.8065316,13.0250783 L60.9371983,13.0250783 C61.4845229,13.0250783 61.9296139,13.4750389 61.9296139,14.0283519 L61.9296139,17.7071615 L37.9782372,17.7071615 L37.9782372,13.0250783 L45.1901506,13.0250783 C45.738168,13.0250783 46.1825662,12.5758179 46.1825662,12.0216648 C46.1825662,11.4676516 45.738168,11.0183912 45.1901506,11.0183912 L37.9782372,11.0183912 L37.9782372,7.60706521 C37.9782372,5.94726652 36.6426874,4.5971046 35.0008519,4.5971046 L31.8911723,4.5971046 L31.8911723,3.05872385 C31.8911723,1.39892516 30.555484,0.0487632385 28.913787,0.0487632385 L9.06450563,0.0487632385 C7.42267013,0.0487632385 6.08712035,1.39892516 6.08712035,3.05872385 L6.08712035,4.5971046 L2.97744069,4.5971046 C1.33560519,4.5971046 5.54112554e-05,5.94726652 5.54112554e-05,7.60706521 L5.54112554e-05,25.6668289 C5.54112554e-05,26.2209821 0.444315152,26.6702425 0.992470996,26.6702425 C1.54062684,26.6702425 1.98488658,26.2209821 1.98488658,25.6668289 L1.98488658,7.60706521 C1.98488658,7.0537523 2.43011602,6.60379168 2.97744069,6.60379168 L6.08712035,6.60379168 L6.08712035,22.7907501 L4.69768312,22.7907501 C4.14952727,22.7907501 3.705129,23.2398705 3.705129,23.7940236 C3.705129,24.3480368 4.14952727,24.7972972 4.69768312,24.7972972 L33.2806095,24.7972972 C33.8286268,24.7972972 34.2730251,24.3480368 34.2730251,23.7940236 C34.2730251,23.2398705 33.8286268,22.7907501 33.2806095,22.7907501 L31.8911723,22.7907501 L31.8911723,6.60379168 L35.0008519,6.60379168 C35.5481766,6.60379168 35.9932675,7.0537523 35.9932675,7.60706521 L35.9932675,60.8500236 C35.9932675,61.4033365 35.5481766,61.8532972 35.0008519,61.8532972 L2.97744069,61.8532972 C2.43011602,61.8532972 1.98488658,61.4033365 1.98488658,60.8500236 L1.98488658,32.8908464 C1.98488658,32.3366932 1.54062684,31.8874328 0.992470996,31.8874328 C0.444315152,31.8874328 5.54112554e-05,32.3365532 5.54112554e-05,32.8908464 L5.54112554e-05,60.8500236 C5.54112554e-05,62.5098223 1.33560519,63.8599842 2.97744069,63.8599842 L35.0008519,63.8599842 C36.6426874,63.8599842 37.9782372,62.5098223 37.9782372,60.8500236 L37.9782372,40.3154066 L60.9371983,40.3154066 C62.5790338,40.3154066 63.9145835,38.9651046 63.9145835,37.305446 L63.9145835,14.0283519 C63.9145835,12.3685532 62.5790338,11.0183912 60.9371983,11.0183912 L60.9371983,11.0183912 Z" id="Fill-1" fill="#1DBFFF" mask="url(#mask-2)"></path>
            </g>
            <path d="M56.0410597,34.1191842 L43.3374753,34.1191842 C42.789458,34.1191842 42.3450597,34.5684446 42.3450597,35.1224578 C42.3450597,35.6766109 42.789458,36.1258713 43.3374753,36.1258713 L56.0410597,36.1258713 C56.5892156,36.1258713 57.0334753,35.6766109 57.0334753,35.1224578 C57.0334753,34.5684446 56.5892156,34.1191842 56.0410597,34.1191842" id="Fill-4" fill="#1DBFFF"></path>
            <path d="M31.7588087,37.3966985 C31.7588087,37.9500114 31.3137177,38.399972 30.7663931,38.399972 L7.21189957,38.399972 C6.66457489,38.399972 6.21948398,37.9500114 6.21948398,37.3966985 L6.21948398,30.172821 C6.21948398,29.6195081 6.66457489,29.1694074 7.21189957,29.1694074 L30.7663931,29.1694074 C31.3137177,29.1694074 31.7588087,29.6195081 31.7588087,30.172821 L31.7588087,37.3966985 Z M33.7437784,37.3966985 L33.7437784,30.172821 C33.7437784,28.5130223 32.40809,27.1628604 30.7663931,27.1628604 L7.21189957,27.1628604 C5.57006407,27.1628604 4.23451429,28.5130223 4.23451429,30.172821 L4.23451429,37.3966985 C4.23451429,39.0564972 5.57006407,40.4066591 7.21189957,40.4066591 L30.7663931,40.4066591 C32.40809,40.4066591 33.7437784,39.0564972 33.7437784,37.3966985 L33.7437784,37.3966985 Z" id="Fill-6" fill="#1DBFFF"></path>
            <path d="M9.46147186,49.36967 C8.40353247,49.36967 7.54271861,48.4994381 7.54271861,47.4299239 C7.54271861,46.3604096 8.40353247,45.4901777 9.46147186,45.4901777 C10.5194113,45.4901777 11.3802251,46.3604096 11.3802251,47.4299239 C11.3802251,48.4994381 10.5194113,49.36967 9.46147186,49.36967 M9.46147186,43.4834906 C7.30902165,43.4834906 5.55774892,45.2539239 5.55774892,47.4299239 C5.55774892,49.6059239 7.30902165,51.3763571 9.46147186,51.3763571 C11.6139221,51.3763571 13.3651948,49.6059239 13.3651948,47.4299239 C13.3651948,45.2539239 11.6139221,43.4834906 9.46147186,43.4834906" id="Fill-8" fill="#1DBFFF"></path>
            <path d="M28.5167654,49.36967 C27.458826,49.36967 26.5980121,48.4994381 26.5980121,47.4299239 C26.5980121,46.3604096 27.458826,45.4901777 28.5167654,45.4901777 C29.5747048,45.4901777 30.4355186,46.3604096 30.4355186,47.4299239 C30.4355186,48.4994381 29.5747048,49.36967 28.5167654,49.36967 M28.5167654,43.4834906 C26.3643152,43.4834906 24.6130424,45.2539239 24.6130424,47.4299239 C24.6130424,49.6059239 26.3643152,51.3763571 28.5167654,51.3763571 C30.6692156,51.3763571 32.4204883,49.6059239 32.4204883,47.4299239 C32.4204883,45.2539239 30.6692156,43.4834906 28.5167654,43.4834906" id="Fill-10" fill="#1DBFFF"></path>
            <path d="M18.9891186,49.36967 C17.9311792,49.36967 17.0703654,48.4994381 17.0703654,47.4299239 C17.0703654,46.3604096 17.9311792,45.4901777 18.9891186,45.4901777 C20.047058,45.4901777 20.9078719,46.3604096 20.9078719,47.4299239 C20.9078719,48.4994381 20.047058,49.36967 18.9891186,49.36967 M18.9891186,43.4834906 C16.8366684,43.4834906 15.0853957,45.2539239 15.0853957,47.4299239 C15.0853957,49.6059239 16.8366684,51.3763571 18.9891186,51.3763571 C21.1415688,51.3763571 22.8928416,49.6059239 22.8928416,47.4299239 C22.8928416,45.2539239 21.1415688,43.4834906 18.9891186,43.4834906" id="Fill-12" fill="#1DBFFF"></path>
            <path d="M9.46147186,58.4664368 C8.40353247,58.4664368 7.54271861,57.5962048 7.54271861,56.5266906 C7.54271861,55.4571764 8.40353247,54.5869444 9.46147186,54.5869444 C10.5194113,54.5869444 11.3802251,55.4571764 11.3802251,56.5266906 C11.3802251,57.5962048 10.5194113,58.4664368 9.46147186,58.4664368 M9.46147186,52.5802573 C7.30902165,52.5802573 5.55774892,54.3506906 5.55774892,56.5266906 C5.55774892,58.7026906 7.30902165,60.4731239 9.46147186,60.4731239 C11.6139221,60.4731239 13.3651948,58.7026906 13.3651948,56.5266906 C13.3651948,54.3506906 11.6139221,52.5802573 9.46147186,52.5802573" id="Fill-14" fill="#1DBFFF"></path>
            <path d="M28.5167654,58.4664368 C27.458826,58.4664368 26.5980121,57.5962048 26.5980121,56.5266906 C26.5980121,55.4571764 27.458826,54.5869444 28.5167654,54.5869444 C29.5747048,54.5869444 30.4355186,55.4571764 30.4355186,56.5266906 C30.4355186,57.5962048 29.5747048,58.4664368 28.5167654,58.4664368 M28.5167654,52.5802573 C26.3643152,52.5802573 24.6130424,54.3506906 24.6130424,56.5266906 C24.6130424,58.7026906 26.3643152,60.4731239 28.5167654,60.4731239 C30.6692156,60.4731239 32.4204883,58.7026906 32.4204883,56.5266906 C32.4204883,54.3506906 30.6692156,52.5802573 28.5167654,52.5802573" id="Fill-16" fill="#1DBFFF"></path>
            <path d="M18.9891186,58.4664368 C17.9311792,58.4664368 17.0703654,57.5962048 17.0703654,56.5266906 C17.0703654,55.4571764 17.9311792,54.5869444 18.9891186,54.5869444 C20.047058,54.5869444 20.9078719,55.4571764 20.9078719,56.5266906 C20.9078719,57.5962048 20.047058,58.4664368 18.9891186,58.4664368 M18.9891186,52.5802573 C16.8366684,52.5802573 15.0853957,54.3506906 15.0853957,56.5266906 C15.0853957,58.7026906 16.8366684,60.4731239 18.9891186,60.4731239 C21.1415688,60.4731239 22.8928416,58.7026906 22.8928416,56.5266906 C22.8928416,54.3506906 21.1415688,52.5802573 18.9891186,52.5802573" id="Fill-18" fill="#1DBFFF"></path>
            <path d="M12.6373541,6.69507221 L20.0477784,6.69507221 C20.5957957,6.69507221 21.0401939,6.24581182 21.0401939,5.69179869 C21.0401939,5.13764551 20.5957957,4.68838512 20.0477784,4.68838512 L12.6373541,4.68838512 C12.0891983,4.68838512 11.6449385,5.13764551 11.6449385,5.69179869 C11.6449385,6.24581182 12.0891983,6.69507221 12.6373541,6.69507221" id="Fill-20" fill="#1DBFFF"></path>
            <path d="M25.3408831,11.1096858 L12.6372987,11.1096858 C12.0892814,11.1096858 11.6448831,11.5589462 11.6448831,12.1129593 C11.6448831,12.6671125 12.0892814,13.1163729 12.6372987,13.1163729 L25.3408831,13.1163729 C25.889039,13.1163729 26.3332987,12.6671125 26.3332987,12.1129593 C26.3332987,11.5589462 25.889039,11.1096858 25.3408831,11.1096858" id="Fill-22" fill="#1DBFFF"></path>
            <path d="M25.3408831,17.798498 L12.6372987,17.798498 C12.0892814,17.798498 11.6448831,18.2477584 11.6448831,18.8017716 C11.6448831,19.3559247 12.0892814,19.8051851 12.6372987,19.8051851 L25.3408831,19.8051851 C25.889039,19.8051851 26.3332987,19.3559247 26.3332987,18.8017716 C26.3332987,18.2477584 25.889039,17.798498 25.3408831,17.798498" id="Fill-24" fill="#1DBFFF"></path>
        </g>
    </g>
</svg>