<?xml version="1.0" encoding="UTF-8" standalone="no"?>
<svg width="24px" height="24px" viewBox="0 0 24 24" version="1.1" xmlns="http://www.w3.org/2000/svg" xmlns:xlink="http://www.w3.org/1999/xlink">
    <!-- Generator: Sketch 41 (35326) - http://www.bohemiancoding.com/sketch -->
    <title>плитка</title>
    <desc>Created with Sketch.</desc>
    <defs>
        <polygon id="path-1" points="10.6096 0 0.0196 0 0.0196 10.4425 10.6096 10.4425 10.6096 0"></polygon>
        <polygon id="path-3" points="0.3904 11 10.9804 11 10.9804 0.5575 0.3904 0.5575 0.3904 11"></polygon>
        <polygon id="path-5" points="8.13151629e-20 0.3904 8.13151629e-20 10.9804 10.4425 10.9804 10.4425 0.3904 0 0.3904"></polygon>
        <polygon id="path-7" points="11 10.6096 11 0.0196 0.5575 0.0196 0.5575 10.6096 11 10.6096"></polygon>
    </defs>
    <g id="Page-1" stroke="none" stroke-width="1" fill="none" fill-rule="evenodd">
        <g>
            <g id="Group-3">
                <mask id="mask-2" fill="white">
                    <use xlink:href="#path-1"></use>
                </mask>
                <g id="Clip-2"></g>
                <path d="M5.3146,1.5745 C7.3566,1.5745 9.0126,3.2075 9.0126,5.2215 C9.0126,7.2355 7.3566,8.8675 5.3146,8.8675 C3.2726,8.8675 1.6166,7.2355 1.6166,5.2215 C1.6166,3.2075 3.2726,1.5745 5.3146,1.5745 M5.3146,10.4425 C8.2386,10.4425 10.6096,8.1045 10.6096,5.2215 C10.6096,2.3375 8.2386,-0.0005 5.3146,-0.0005 C2.3906,-0.0005 0.0196,2.3375 0.0196,5.2215 C0.0196,8.1045 2.3906,10.4425 5.3146,10.4425" id="Fill-1" fill="#282829" mask="url(#mask-2)"></path>
            </g>
            <g id="Group-6" transform="translate(13.000000, 13.000000)">
                <mask id="mask-4" fill="white">
                    <use xlink:href="#path-3"></use>
                </mask>
                <g id="Clip-5"></g>
                <path d="M5.6854,9.4255 C3.6434,9.4255 1.9874,7.7925 1.9874,5.7785 C1.9874,3.7645 3.6434,2.1325 5.6854,2.1325 C7.7274,2.1325 9.3834,3.7645 9.3834,5.7785 C9.3834,7.7925 7.7274,9.4255 5.6854,9.4255 M5.6854,0.5575 C2.7614,0.5575 0.3904,2.8955 0.3904,5.7785 C0.3904,8.6625 2.7614,11.0005 5.6854,11.0005 C8.6094,11.0005 10.9804,8.6625 10.9804,5.7785 C10.9804,2.8955 8.6094,0.5575 5.6854,0.5575" id="Fill-4" fill="#282829" mask="url(#mask-4)"></path>
            </g>
            <g id="Group-9" transform="translate(0.000000, 13.000000)">
                <mask id="mask-6" fill="white">
                    <use xlink:href="#path-5"></use>
                </mask>
                <g id="Clip-8"></g>
                <path d="M1.5745,5.6854 C1.5745,3.6434 3.2075,1.9874 5.2215,1.9874 C7.2355,1.9874 8.8675,3.6434 8.8675,5.6854 C8.8675,7.7274 7.2355,9.3834 5.2215,9.3834 C3.2075,9.3834 1.5745,7.7274 1.5745,5.6854 M10.4425,5.6854 C10.4425,2.7614 8.1045,0.3904 5.2215,0.3904 C2.3375,0.3904 -0.0005,2.7614 -0.0005,5.6854 C-0.0005,8.6094 2.3375,10.9804 5.2215,10.9804 C8.1045,10.9804 10.4425,8.6094 10.4425,5.6854" id="Fill-7" fill="#282829" mask="url(#mask-6)"></path>
            </g>
            <g id="Group-12" transform="translate(13.000000, 0.000000)">
                <mask id="mask-8" fill="white">
                    <use xlink:href="#path-7"></use>
                </mask>
                <g id="Clip-11"></g>
                <path d="M9.4255,5.3146 C9.4255,7.3566 7.7925,9.0126 5.7785,9.0126 C3.7645,9.0126 2.1325,7.3566 2.1325,5.3146 C2.1325,3.2726 3.7645,1.6166 5.7785,1.6166 C7.7925,1.6166 9.4255,3.2726 9.4255,5.3146 M0.5575,5.3146 C0.5575,8.2386 2.8955,10.6096 5.7785,10.6096 C8.6625,10.6096 11.0005,8.2386 11.0005,5.3146 C11.0005,2.3906 8.6625,0.0196 5.7785,0.0196 C2.8955,0.0196 0.5575,2.3906 0.5575,5.3146" id="Fill-10" fill="#282829" mask="url(#mask-8)"></path>
            </g>
        </g>
    </g>
</svg>