<?xml version="1.0" encoding="UTF-8" standalone="no"?>
<svg width="24px" height="24px" viewBox="0 0 24 24" version="1.1" xmlns="http://www.w3.org/2000/svg" xmlns:xlink="http://www.w3.org/1999/xlink">
    <!-- Generator: Sketch 41 (35326) - http://www.bohemiancoding.com/sketch -->
    <title>Напольные</title>
    <desc>Created with Sketch.</desc>
    <defs>
        <polygon id="path-1" points="0.0004 24 24 24 24 0.0004 0.0004 0.0004 0.0004 24"></polygon>
    </defs>
    <g id="Page-1" stroke="none" stroke-width="1" fill="none" fill-rule="evenodd">
        <g id="Menu" transform="translate(-20.000000, -180.000000)">
            <rect id="Rectangle" fill="#FFFFFF" x="0" y="0" width="270" height="900"></rect>
            <g id="Page-1" opacity="0.8" transform="translate(20.000000, 180.000000)">
                <mask id="mask-2" fill="white">
                    <use xlink:href="#path-1"></use>
                </mask>
                <g id="Clip-2"></g>
                <path d="M22.4014,15.8364 L17.6854,15.8364 L17.6854,7.7914 L17.6854,6.2174 L17.6854,1.5744 L21.5984,1.5744 C22.0414,1.5744 22.4014,1.9284 22.4014,2.3644 L22.4014,15.8364 Z M22.4014,21.6354 C22.4014,22.0714 22.0414,22.4224 21.5984,22.4224 L7.9144,22.4224 L7.9144,17.4114 L22.4014,17.4114 L22.4014,21.6354 Z M1.5984,6.2174 L1.5984,2.3644 C1.5984,1.9284 1.9584,1.5744 2.4014,1.5744 L16.0854,1.5744 L16.0854,6.2174 L7.9144,6.2174 L6.3144,6.2174 L1.5984,6.2174 Z M6.3144,22.4224 L2.4014,22.4224 C1.9584,22.4224 1.5984,22.0714 1.5984,21.6354 L1.5984,7.7914 L6.3144,7.7914 L6.3144,22.4224 Z M7.9144,14.7894 L7.9144,7.7914 L14.9124,7.7914 L7.9144,14.7894 Z M16.0854,8.8804 L16.0854,15.8364 L9.1294,15.8364 L16.0854,8.8804 Z M21.5984,0.0004 L2.4014,0.0004 C1.0754,0.0004 0.0004,1.0594 0.0004,2.3644 L0.0004,21.6354 C0.0004,22.9384 1.0754,24.0004 2.4014,24.0004 L21.5984,24.0004 C22.9244,24.0004 24.0004,22.9384 24.0004,21.6354 L24.0004,17.4114 L24.0004,15.8364 L24.0004,2.3644 C24.0004,1.0594 22.9244,0.0004 21.5984,0.0004 L21.5984,0.0004 Z" id="Fill-1" fill="#282829" mask="url(#mask-2)"></path>
            </g>
        </g>
    </g>
</svg>