<?xml version="1.0" encoding="UTF-8" standalone="no"?>
<svg width="24px" height="24px" viewBox="0 0 24 24" version="1.1" xmlns="http://www.w3.org/2000/svg" xmlns:xlink="http://www.w3.org/1999/xlink">
    <!-- Generator: Sketch 41 (35326) - http://www.bohemiancoding.com/sketch -->
    <title>Электротовары</title>
    <desc>Created with Sketch.</desc>
    <defs></defs>
    <g id="Page-1" stroke="none" stroke-width="1" fill="none" fill-rule="evenodd">
        <g id="Menu" transform="translate(-20.000000, -224.000000)">
            <rect id="Rectangle" fill="#FFFFFF" x="0" y="0" width="270" height="900"></rect>
            <g id="Page-1" opacity="0.8" transform="translate(20.000000, 224.000000)" fill="#282829">
                <path d="M15.07,9.95 C14.63,9.95 14.27,10.31 14.27,10.74 L14.27,13.1 C14.27,13.54 14.63,13.89 15.07,13.89 C15.51,13.89 15.87,13.54 15.87,13.1 L15.87,10.74 C15.87,10.31 15.51,9.95 15.07,9.95" id="Fill-1"></path>
                <path d="M9.2,9.95 C8.76,9.95 8.4,10.31 8.4,10.74 L8.4,13.1 C8.4,13.54 8.76,13.89 9.2,13.89 C9.64,13.89 10,13.54 10,13.1 L10,10.74 C10,10.31 9.64,9.95 9.2,9.95" id="Fill-3"></path>
                <path d="M12,19.01 C8.07,19.01 4.88,15.87 4.88,12 C4.88,8.13 8.07,4.99 12,4.99 C15.93,4.99 19.12,8.13 19.12,12 C19.12,15.87 15.93,19.01 12,19.01 M12,3.41 C7.19,3.41 3.28,7.27 3.28,12 C3.28,16.73 7.19,20.59 12,20.59 C16.81,20.59 20.72,16.73 20.72,12 C20.72,7.26 16.81,3.41 12,3.41" id="Fill-5"></path>
                <path d="M22.4,12 L22.4,21.64 C22.4,22.07 22.04,22.42 21.6,22.42 L2.4,22.42 C1.96,22.42 1.6,22.07 1.6,21.64 L1.6,12 L1.6,2.37 C1.6,1.93 1.96,1.58 2.4,1.58 L21.6,1.58 C22.04,1.58 22.4,1.93 22.4,2.37 L22.4,12 Z M21.6,0 L2.4,0 C1.08,0 0,1.06 0,2.37 L0,21.64 C0,22.94 1.08,24 2.4,24 L21.6,24 C22.92,24 24,22.94 24,21.64 L24,2.37 C24,1.06 22.92,0 21.6,0 L21.6,0 Z" id="Fill-7"></path>
            </g>
        </g>
    </g>
</svg>