<?xml version="1.0" encoding="UTF-8"?>
<svg width="251px" height="56px" viewBox="0 0 251 56" version="1.1" xmlns="http://www.w3.org/2000/svg" xmlns:xlink="http://www.w3.org/1999/xlink">
    <!-- Generator: Sketch 47.1 (45422) - http://www.bohemiancoding.com/sketch -->
    <title>logo</title>
    <desc>Created with Sketch.</desc>
    <defs>
        <polygon id="path-1" points="0 59.472654 250 59.472654 250 0.602762496 0 0.602762496"></polygon>
    </defs>
    <g id="Symbols" stroke="none" stroke-width="1" fill="none" fill-rule="evenodd">
        <g id="Menu" transform="translate(-19.000000, -18.000000)">
            <g id="logo" transform="translate(20.000000, 16.000000)">
                <path d="M20.7429536,10.3141293 L18.1946755,12.3820561 C16.6730199,10.2476414 14.5207682,8.96774808 11.6754702,8.96774808 C7.00921192,8.96774808 3.83186093,12.3820561 3.83186093,16.9455482 C3.83186093,21.6087722 7.10745695,25.0563242 11.8734834,25.0563242 C14.8200728,25.0563242 17.0705695,23.7424314 18.3942119,21.7727255 L18.3942119,19.4411135 L11.6754702,19.4411135 L11.6754702,16.3554675 L21.9013311,16.3554675 L21.9013311,22.4617826 C20.0156358,25.8443577 16.2092119,28.1759697 11.7082185,28.1759697 C5.221,28.1759697 0.190701987,23.316304 0.190701987,16.9787922 C0.190701987,10.6420359 5.25374834,5.78237018 11.7082185,5.78237018 C15.5473907,5.78237018 18.6919934,7.45741354 20.7429536,10.3141293 Z" id="Fill-1" fill="#282828"></path>
                <path d="M20.7429536,10.3141293 L18.1946755,12.3820561 C16.6730199,10.2476414 14.5207682,8.96774808 11.6754702,8.96774808 C7.00921192,8.96774808 3.83186093,12.3820561 3.83186093,16.9455482 C3.83186093,21.6087722 7.10745695,25.0563242 11.8734834,25.0563242 C14.8200728,25.0563242 17.0705695,23.7424314 18.3942119,21.7727255 L18.3942119,19.4411135 L11.6754702,19.4411135 L11.6754702,16.3554675 L21.9013311,16.3554675 L21.9013311,22.4617826 C20.0156358,25.8443577 16.2092119,28.1759697 11.7082185,28.1759697 C5.221,28.1759697 0.190701987,23.316304 0.190701987,16.9787922 C0.190701987,10.6420359 5.25374834,5.78237018 11.7082185,5.78237018 C15.5473907,5.78237018 18.6919934,7.45741354 20.7429536,10.3141293 Z" id="Stroke-3" stroke="#282828" stroke-width="0.5"></path>
                <path d="M27.6597086,19.7702289 C27.6597086,22.757654 29.7776887,24.9902896 32.6900066,24.9902896 C35.5703377,24.9902896 37.7553377,22.72441 37.7553377,19.7702289 C37.7553377,16.7495598 35.5703377,14.5169242 32.7242781,14.4836802 C29.7776887,14.5169242 27.6597086,16.7820482 27.6597086,19.7702289 M41.3294768,19.7369849 C41.3294768,24.4651858 37.4560331,28.1756675 32.6900066,28.1756675 C27.9247417,28.1424235 24.1198411,24.4984298 24.1198411,19.7369849 C24.1198411,15.008784 27.8919934,11.3315463 32.6900066,11.3315463 C37.4560331,11.3315463 41.3294768,15.008784 41.3294768,19.7369849" id="Fill-5" fill="#282828"></path>
                <path d="M27.6597086,19.7702289 C27.6597086,22.757654 29.7776887,24.9902896 32.6900066,24.9902896 C35.5703377,24.9902896 37.7553377,22.72441 37.7553377,19.7702289 C37.7553377,16.7495598 35.5703377,14.5169242 32.7242781,14.4836802 C29.7776887,14.5169242 27.6597086,16.7820482 27.6597086,19.7702289 Z M41.3294768,19.7369849 C41.3294768,24.4651858 37.4560331,28.1756675 32.6900066,28.1756675 C27.9247417,28.1424235 24.1198411,24.4984298 24.1198411,19.7369849 C24.1198411,15.008784 27.8919934,11.3315463 32.6900066,11.3315463 C37.4560331,11.3315463 41.3294768,15.008784 41.3294768,19.7369849 Z" id="Stroke-7" stroke="#282828" stroke-width="0.5"></path>
                <path d="M58.6721623,17.7338083 L58.6721623,27.8142903 L55.1962682,27.8142903 L55.1962682,18.1939353 C55.1962682,15.9937881 53.8063675,14.4502096 51.6556391,14.4502096 C49.5033874,14.4502096 47.9489834,15.9937881 47.9489834,18.1939353 L47.9489834,27.8142903 L44.4723278,27.8142903 L44.4723278,11.6924702 L47.7166987,11.6924702 L47.7166987,13.2685371 C48.8758377,12.0536207 50.5300099,11.3313196 52.5824934,11.3313196 C56.4216656,11.3313196 58.6721623,13.9583498 58.6721623,17.7338083" id="Fill-9" fill="#282828"></path>
                <path d="M58.6721623,17.7338083 L58.6721623,27.8142903 L55.1962682,27.8142903 L55.1962682,18.1939353 C55.1962682,15.9937881 53.8063675,14.4502096 51.6556391,14.4502096 C49.5033874,14.4502096 47.9489834,15.9937881 47.9489834,18.1939353 L47.9489834,27.8142903 L44.4723278,27.8142903 L44.4723278,11.6924702 L47.7166987,11.6924702 L47.7166987,13.2685371 C48.8758377,12.0536207 50.5300099,11.3313196 52.5824934,11.3313196 C56.4216656,11.3313196 58.6721623,13.9583498 58.6721623,17.7338083 Z" id="Stroke-11" stroke="#282828" stroke-width="0.5"></path>
                <path d="M77.1065099,15.0746676 L74.658,16.9786411 C73.5993907,15.500795 72.2422384,14.5170753 70.2895232,14.5170753 C67.3101854,14.5170753 65.1914437,16.8146878 65.1914437,19.737136 C65.1914437,22.7245611 67.3101854,24.9904407 70.2895232,24.9904407 C72.2079669,24.9904407 73.5666424,24.0376984 74.658,22.5606079 L77.1065099,24.4320929 C75.6846225,26.6979725 73.3016093,28.1758186 70.2567748,28.1758186 C65.4564768,28.1758186 61.6515762,24.4985809 61.6515762,19.737136 C61.6515762,15.0089351 65.4564768,11.3316974 70.2567748,11.3316974 C73.3343576,11.3316974 75.7173709,12.8095435 77.1065099,15.0746676" id="Fill-13" fill="#282828"></path>
                <path d="M77.1065099,15.0746676 L74.658,16.9786411 C73.5993907,15.500795 72.2422384,14.5170753 70.2895232,14.5170753 C67.3101854,14.5170753 65.1914437,16.8146878 65.1914437,19.737136 C65.1914437,22.7245611 67.3101854,24.9904407 70.2895232,24.9904407 C72.2079669,24.9904407 73.5666424,24.0376984 74.658,22.5606079 L77.1065099,24.4320929 C75.6846225,26.6979725 73.3016093,28.1758186 70.2567748,28.1758186 C65.4564768,28.1758186 61.6515762,24.4985809 61.6515762,19.737136 C61.6515762,15.0089351 65.4564768,11.3316974 70.2567748,11.3316974 C73.3343576,11.3316974 75.7173709,12.8095435 77.1065099,15.0746676 Z" id="Stroke-15" stroke="#282828" stroke-width="0.5"></path>
                <path d="M94.3166026,17.7338083 L94.3166026,27.8142903 L90.8422318,27.8142903 L90.8422318,18.2264237 C90.8422318,15.9937881 89.4508079,14.4834536 87.3000795,14.4834536 C85.149351,14.4834536 83.5934238,16.0262765 83.5934238,18.2264237 L83.5934238,27.8142903 L80.1182914,27.8142903 L80.1182914,3.18881071 L83.5934238,3.18881071 L83.5934238,13.3017811 C84.685543,12.0536207 86.3077285,11.3313196 88.2939536,11.3313196 C92.0333576,11.3313196 94.3166026,13.9583498 94.3166026,17.7338083" id="Fill-17" fill="#282828"></path>
                <path d="M94.3166026,17.7338083 L94.3166026,27.8142903 L90.8422318,27.8142903 L90.8422318,18.2264237 C90.8422318,15.9937881 89.4508079,14.4834536 87.3000795,14.4834536 C85.149351,14.4834536 83.5934238,16.0262765 83.5934238,18.2264237 L83.5934238,27.8142903 L80.1182914,27.8142903 L80.1182914,3.18881071 L83.5934238,3.18881071 L83.5934238,13.3017811 C84.685543,12.0536207 86.3077285,11.3313196 88.2939536,11.3313196 C92.0333576,11.3313196 94.3166026,13.9583498 94.3166026,17.7338083 Z" id="Stroke-19" stroke="#282828" stroke-width="0.5"></path>
                <path d="M107.720348,21.7070686 L107.720348,21.410895 L103.550646,21.410895 C101.697699,21.410895 100.671076,22.0682191 100.671076,23.3813564 C100.671076,24.7934701 101.929222,25.5157712 103.517897,25.5157712 C105.801142,25.5157712 107.720348,23.9064602 107.720348,21.7070686 M111.22899,18.0630749 L111.22899,27.8141392 L107.985381,27.8141392 L107.985381,26.007631 C106.827765,27.3880118 105.039553,28.1760453 102.789056,28.1760453 C99.3801821,28.1760453 97.1296854,26.3038047 97.1296854,23.5128213 C97.1296854,20.6893494 99.4799503,18.9160852 103.121109,18.9160852 L107.720348,18.9160852 L107.720348,17.8651221 C107.720348,15.6324865 106.463725,14.4183256 104.245977,14.4183256 C102.35952,14.4183256 101.035877,15.3045799 99.7442219,16.8141589 L97.7260099,14.7794761 C99.4144536,12.4153757 101.830215,11.3319241 104.577268,11.3319241 C108.481937,11.3319241 111.22899,13.5978037 111.22899,18.0630749" id="Fill-21" fill="#282828"></path>
                <path d="M107.720348,21.7070686 L107.720348,21.410895 L103.550646,21.410895 C101.697699,21.410895 100.671076,22.0682191 100.671076,23.3813564 C100.671076,24.7934701 101.929222,25.5157712 103.517897,25.5157712 C105.801142,25.5157712 107.720348,23.9064602 107.720348,21.7070686 Z M111.22899,18.0630749 L111.22899,27.8141392 L107.985381,27.8141392 L107.985381,26.007631 C106.827765,27.3880118 105.039553,28.1760453 102.789056,28.1760453 C99.3801821,28.1760453 97.1296854,26.3038047 97.1296854,23.5128213 C97.1296854,20.6893494 99.4799503,18.9160852 103.121109,18.9160852 L107.720348,18.9160852 L107.720348,17.8651221 C107.720348,15.6324865 106.463725,14.4183256 104.245977,14.4183256 C102.35952,14.4183256 101.035877,15.3045799 99.7442219,16.8141589 L97.7260099,14.7794761 C99.4144536,12.4153757 101.830215,11.3319241 104.577268,11.3319241 C108.481937,11.3319241 111.22899,13.5978037 111.22899,18.0630749 Z" id="Stroke-23" stroke="#282828" stroke-width="0.5"></path>
                <path d="M124.534795,11.6923946 L124.534795,14.7463077 L123.475424,14.7463077 C120.893636,14.7463077 118.710159,16.2241538 118.710159,19.2115789 L118.710159,27.8142148 L115.233503,27.8142148 L115.233503,11.6923946 L118.477874,11.6923946 L118.477874,13.7935654 C119.636252,12.3164748 121.357444,11.5284413 123.211152,11.5284413 C123.773205,11.5284413 124.169993,11.5941738 124.534795,11.6923946" id="Fill-25" fill="#282828"></path>
                <path d="M124.534795,11.6923946 L124.534795,14.7463077 L123.475424,14.7463077 C120.893636,14.7463077 118.710159,16.2241538 118.710159,19.2115789 L118.710159,27.8142148 L115.233503,27.8142148 L115.233503,11.6923946 L118.477874,11.6923946 L118.477874,13.7935654 C119.636252,12.3164748 121.357444,11.5284413 123.211152,11.5284413 C123.773205,11.5284413 124.169993,11.5941738 124.534795,11.6923946 Z" id="Stroke-27" stroke="#282828" stroke-width="0.5"></path>
                <polygon id="Fill-29" fill="#282828" points="19.5187748 56.5248509 16.0116556 56.5248509 16.0116556 46.6090777 5.02344371 46.6090777 5.02344371 56.5248509 1.51403974 56.5248509 1.51403974 34.8543079 5.02344371 34.8543079 5.02344371 43.4901878 16.0116556 43.4901878 16.0116556 34.8543079 19.5187748 34.8543079"></polygon>
                <polygon id="Stroke-31" stroke="#282828" stroke-width="0.5" points="19.5187748 56.5248509 16.0116556 56.5248509 16.0116556 46.6090777 5.02344371 46.6090777 5.02344371 56.5248509 1.51403974 56.5248509 1.51403974 34.8543079 5.02344371 34.8543079 5.02344371 43.4901878 16.0116556 43.4901878 16.0116556 34.8543079 19.5187748 34.8543079"></polygon>
                <path d="M26.3373609,48.4809406 C26.3373609,51.4683657 28.4553411,53.7010013 31.3676589,53.7010013 C34.2479901,53.7010013 36.4314669,51.4351217 36.4314669,48.4809406 C36.4314669,45.4602715 34.2479901,43.2276359 31.4004073,43.1943919 C28.4553411,43.2276359 26.3373609,45.4927599 26.3373609,48.4809406 M40.005606,48.4476966 C40.005606,53.1758975 36.1336854,56.8863792 31.3676589,56.8863792 C26.602394,56.8531352 22.7959702,53.2091414 22.7959702,48.4476966 C22.7959702,43.7194957 26.5696457,40.042258 31.3676589,40.042258 C36.1336854,40.042258 40.005606,43.7194957 40.005606,48.4476966" id="Fill-33" fill="#282828"></path>
                <path d="M26.3373609,48.4809406 C26.3373609,51.4683657 28.4553411,53.7010013 31.3676589,53.7010013 C34.2479901,53.7010013 36.4314669,51.4351217 36.4314669,48.4809406 C36.4314669,45.4602715 34.2479901,43.2276359 31.4004073,43.1943919 C28.4553411,43.2276359 26.3373609,45.4927599 26.3373609,48.4809406 Z M40.005606,48.4476966 C40.005606,53.1758975 36.1336854,56.8863792 31.3676589,56.8863792 C26.602394,56.8531352 22.7959702,53.2091414 22.7959702,48.4476966 C22.7959702,43.7194957 26.5696457,40.042258 31.3676589,40.042258 C36.1336854,40.042258 40.005606,43.7194957 40.005606,48.4476966 Z" id="Stroke-35" stroke="#282828" stroke-width="0.5"></path>
                <path d="M57.1505066,49.7611361 C57.1505066,54.1281864 54.0714007,56.8866814 50.0997119,56.8866814 C46.0625265,56.8866814 42.9849437,54.1281864 42.9849437,49.7611361 L42.9849437,40.4029552 L46.4273278,40.4029552 L46.4273278,50.0240658 C46.4273278,52.2899453 48.0487517,53.7013035 50.0997119,53.7013035 C52.0859371,53.7013035 53.6746126,52.2899453 53.6746126,50.0240658 L53.6746126,40.4029552 L57.1505066,40.4029552 L57.1505066,49.7611361 Z" id="Fill-37" fill="#282828"></path>
                <path d="M57.1505066,49.7611361 C57.1505066,54.1281864 54.0714007,56.8866814 50.0997119,56.8866814 C46.0625265,56.8866814 42.9849437,54.1281864 42.9849437,49.7611361 L42.9849437,40.4029552 L46.4273278,40.4029552 L46.4273278,50.0240658 C46.4273278,52.2899453 48.0487517,53.7013035 50.0997119,53.7013035 C52.0859371,53.7013035 53.6746126,52.2899453 53.6746126,50.0240658 L53.6746126,40.4029552 L57.1505066,40.4029552 L57.1505066,49.7611361 Z" id="Stroke-39" stroke="#282828" stroke-width="0.5"></path>
                <path d="M72.0104106,42.5376721 L70.1239536,44.6720869 C69.0980927,43.6218793 67.741702,43.029532 66.3175298,43.029532 C65.0266358,43.029532 64.0997815,43.5229029 64.0997815,44.5731105 C64.0997815,45.4601204 64.7616026,45.8870033 66.2520331,46.4778395 L67.8064371,47.1011642 C70.7537881,48.3160806 72.2426954,49.5967295 72.2426954,51.9608299 C72.2426954,55.2111847 69.4621325,56.8862281 66.2185232,56.8862281 C63.3397152,56.8862281 61.054947,55.5730908 59.6658079,53.7665826 L61.6512715,51.5996794 C62.9429272,52.9460607 64.3648146,53.8980474 66.2185232,53.8980474 C67.6419338,53.8980474 68.8330596,53.3072112 68.8330596,52.0915392 C68.8330596,51.0413316 67.873457,50.6144486 66.5498146,50.0893448 L64.8941192,49.4002878 C62.281106,48.3160806 60.6581589,47.1344082 60.6581589,44.7045753 C60.6581589,41.7163947 63.1729272,40.0421069 66.3845497,40.0421069 C68.7332914,40.0421069 70.6540199,40.9283612 72.0104106,42.5376721" id="Fill-41" fill="#282828"></path>
                <path d="M72.0104106,42.5376721 L70.1239536,44.6720869 C69.0980927,43.6218793 67.741702,43.029532 66.3175298,43.029532 C65.0266358,43.029532 64.0997815,43.5229029 64.0997815,44.5731105 C64.0997815,45.4601204 64.7616026,45.8870033 66.2520331,46.4778395 L67.8064371,47.1011642 C70.7537881,48.3160806 72.2426954,49.5967295 72.2426954,51.9608299 C72.2426954,55.2111847 69.4621325,56.8862281 66.2185232,56.8862281 C63.3397152,56.8862281 61.054947,55.5730908 59.6658079,53.7665826 L61.6512715,51.5996794 C62.9429272,52.9460607 64.3648146,53.8980474 66.2185232,53.8980474 C67.6419338,53.8980474 68.8330596,53.3072112 68.8330596,52.0915392 C68.8330596,51.0413316 67.873457,50.6144486 66.5498146,50.0893448 L64.8941192,49.4002878 C62.281106,48.3160806 60.6581589,47.1344082 60.6581589,44.7045753 C60.6581589,41.7163947 63.1729272,40.0421069 66.3845497,40.0421069 C68.7332914,40.0421069 70.6540199,40.9283612 72.0104106,42.5376721 Z" id="Stroke-43" stroke="#282828" stroke-width="0.5"></path>
                <path d="M78.0004636,46.9049491 L86.837947,46.9049491 C86.7709272,44.3761399 84.8844702,42.9647817 82.6667219,42.9647817 C80.3834768,42.9647817 78.5297682,44.5076047 78.0004636,46.9049491 M90.0472848,49.5969561 L77.9334437,49.5969561 C78.3972517,52.2564747 80.4489735,53.8325417 83.2287748,53.8325417 C85.116755,53.8325417 86.6056623,53.1102406 87.962053,51.9278126 L89.6177483,54.291913 C87.8965563,55.9004684 85.7115563,56.8864547 83.1305298,56.8864547 C78.1002318,56.8864547 74.3935762,53.2417054 74.3935762,48.4810161 C74.3935762,43.7528152 78.0659603,40.0423335 82.7992384,40.0423335 C87.1349669,40.0423335 90.3123179,43.1944674 90.3123179,47.430053 C90.3123179,48.3163073 90.147053,49.1700732 90.0472848,49.5969561" id="Fill-45" fill="#282828"></path>
                <path d="M78.0004636,46.9049491 L86.837947,46.9049491 C86.7709272,44.3761399 84.8844702,42.9647817 82.6667219,42.9647817 C80.3834768,42.9647817 78.5297682,44.5076047 78.0004636,46.9049491 Z M90.0472848,49.5969561 L77.9334437,49.5969561 C78.3972517,52.2564747 80.4489735,53.8325417 83.2287748,53.8325417 C85.116755,53.8325417 86.6056623,53.1102406 87.962053,51.9278126 L89.6177483,54.291913 C87.8965563,55.9004684 85.7115563,56.8864547 83.1305298,56.8864547 C78.1002318,56.8864547 74.3935762,53.2417054 74.3935762,48.4810161 C74.3935762,43.7528152 78.0659603,40.0423335 82.7992384,40.0423335 C87.1349669,40.0423335 90.3123179,43.1944674 90.3123179,47.430053 C90.3123179,48.3163073 90.147053,49.1700732 90.0472848,49.5969561 Z" id="Stroke-47" stroke="#282828" stroke-width="0.5"></path>
                <mask id="mask-2" fill="white">
                    <use xlink:href="#path-1"></use>
                </mask>
                <g id="Clip-50"></g>
                <polygon id="Fill-49" fill="#282828" mask="url(#mask-2)" points="107 57 250 57 250 53 107 53"></polygon>
            </g>
        </g>
    </g>
</svg>