<?xml version="1.0" encoding="UTF-8" standalone="no"?>
<svg width="20px" height="20px" viewBox="0 0 20 20" version="1.1" xmlns="http://www.w3.org/2000/svg" xmlns:xlink="http://www.w3.org/1999/xlink">
    <!-- Generator: Sketch 41 (35326) - http://www.bohemiancoding.com/sketch -->
    <title>Page 1</title>
    <desc>Created with Sketch.</desc>
    <defs>
        <polygon id="path-1" points="0 0.00015 0 19.9999 19.9956 19.9999 19.9956 0.00015 1.35525272e-20 0.00015"></polygon>
    </defs>
    <g id="Page-1" stroke="none" stroke-width="1" fill="none" fill-rule="evenodd" opacity="0.799999952">
        <g>
            <mask id="mask-2" fill="white">
                <use xlink:href="#path-1"></use>
            </mask>
            <g id="Clip-2"></g>
            <path d="M11.1416,10.0209 L19.7616,1.3919 C20.0736,1.0799 20.0736,0.5729 19.7616,0.2599 C19.4496,-0.0521 18.9426,-0.0521 18.6306,0.2599 L10.0106,8.8889 L1.3656,0.2349 C1.0526,-0.0781 0.5466,-0.0781 0.2346,0.2349 C-0.0784,0.5469 -0.0784,1.0539 0.2346,1.3669 L8.8796,10.0209 L0.2846,18.6249 C-0.0284,18.9379 -0.0284,19.4449 0.2846,19.7569 C0.5966,20.0699 1.1026,20.0699 1.4156,19.7569 L10.0106,11.1529 L18.6146,19.7659 C18.9266,20.0779 19.4336,20.0779 19.7456,19.7659 C20.0576,19.4529 20.0576,18.9459 19.7456,18.6339 L11.1416,10.0209 Z" id="Fill-1" fill="#1DBFFF" mask="url(#mask-2)"></path>
        </g>
    </g>
</svg>