<?xml version="1.0" encoding="UTF-8" standalone="no"?>
<svg width="24px" height="24px" viewBox="0 0 24 24" version="1.1" xmlns="http://www.w3.org/2000/svg" xmlns:xlink="http://www.w3.org/1999/xlink">
    <defs>
        <polygon id="path-1" points="11.99995 24 0 24 0 0 11.99995 0 23.9999 0 23.9999 24 11.99995 24"></polygon>
    </defs>
    <g id="Page-1" stroke="none" stroke-width="1" fill="none" fill-rule="evenodd" opacity="0.8">
        <g>
            <mask id="mask-2" fill="white">
                <use xlink:href="#path-1"></use>
            </mask>
            <g id="Clip-2"></g>
            <path d="M18.7789,22.382 L5.2209,22.382 L5.2209,22.382 C3.2069,22.382 1.5749,20.725 1.5749,18.681 C1.5749,16.637 3.2069,14.981 5.2209,14.98 L18.7789,14.98 C20.7929,14.98 22.4259,16.637 22.4259,18.681 C22.4259,20.725 20.7929,22.382 18.7789,22.382 M18.7789,13.382 L5.2209,13.382 C2.3379,13.382 -0.0001,15.754 -0.0001,18.681 C-0.0001,21.606 2.3359,23.978 5.2179,23.98 L5.2209,24 L18.7789,24 L18.7829,23.98 C21.6639,23.978 23.9999,21.606 23.9999,18.681 C23.9999,15.754 21.6629,13.382 18.7789,13.382 M5.2209,1.598 L18.7789,1.598 C20.7929,1.598 22.4259,3.255 22.4259,5.299 C22.4259,7.343 20.7929,9 18.7789,9 L5.2209,9 L5.2209,9 C3.2069,9 1.5749,7.343 1.5749,5.299 C1.5749,3.255 3.2069,1.598 5.2209,1.598 M5.2179,10.598 L5.2209,10.618 L18.7789,10.618 L18.7829,10.598 C21.6639,10.596 23.9999,8.224 23.9999,5.299 C23.9999,2.372 21.6629,0 18.7789,0 L5.2209,0 C2.3379,0 -0.0001,2.372 -0.0001,5.299 C-0.0001,8.224 2.3359,10.596 5.2179,10.598" id="Fill-1" fill="#1DBFFF" mask="url(#mask-2)"></path>
        </g>
    </g>
</svg>